solid
 facet normal  1.2537195494e-01 0.0000000000e+00 -9.9210980890e-01
   outer loop
     vertex 1.0000000000e+00 0.0000000000e+00 0.0000000000e+00
     vertex 9.6557914469e-01 2.5000000000e+00 -4.3497301231e-03
     vertex 1.0000000000e+00 2.5000000000e+00 0.0000000000e+00
   endloop
 endfacet
 facet normal  1.3654973688e-01 1.5646865902e-04 -9.9063320400e-01
   outer loop
     vertex 1.0000000000e+00 0.0000000000e+00 0.0000000000e+00
     vertex 9.6554119692e-01 0.0000000000e+00 -4.7498311941e-03
     vertex 9.6557914469e-01 2.5000000000e+00 -4.3497301231e-03
   endloop
 endfacet
 facet normal  1.1948599528e-01 1.5708018762e-04 -9.9283587378e-01
   outer loop
     vertex 9.6554119692e-01 0.0000000000e+00 -4.7498311941e-03
     vertex 9.0537781108e-01 2.5000000000e+00 -1.1594851349e-02
     vertex 9.6557914469e-01 2.5000000000e+00 -4.3497301231e-03
   endloop
 endfacet
 facet normal  1.3014855540e-01 4.1735139402e-04 -9.9149441720e-01
   outer loop
     vertex 9.6554119692e-01 0.0000000000e+00 -4.7498311941e-03
     vertex 9.0526556930e-01 0.0000000000e+00 -1.2661913928e-02
     vertex 9.0537781108e-01 2.5000000000e+00 -1.1594851349e-02
   endloop
 endfacet
 facet normal  1.1019457059e-01 4.1927827048e-04 -9.9390994603e-01
   outer loop
     vertex 9.0526556930e-01 0.0000000000e+00 -1.2661913928e-02
     vertex 8.0760981306e-01 2.5000000000e+00 -2.2434367145e-02
     vertex 9.0537781108e-01 2.5000000000e+00 -1.1594851349e-02
   endloop
 endfacet
 facet normal  1.2003755677e-01 8.0822782330e-04 -9.9276902235e-01
   outer loop
     vertex 9.0526556930e-01 0.0000000000e+00 -1.2661913928e-02
     vertex 8.0735788143e-01 0.0000000000e+00 -2.4500115339e-02
     vertex 8.0760981306e-01 2.5000000000e+00 -2.2434367145e-02
   endloop
 endfacet
 facet normal  9.6026215498e-02 8.1280369733e-04 -9.9537847339e-01
   outer loop
     vertex 8.0735788143e-01 0.0000000000e+00 -2.4500115339e-02
     vertex 6.6647411774e-01 2.5000000000e+00 -3.6050018935e-02
     vertex 8.0760981306e-01 2.5000000000e+00 -2.2434367145e-02
   endloop
 endfacet
 facet normal  1.0459886727e-01 1.2998981561e-03 -9.9451364356e-01
   outer loop
     vertex 8.0735788143e-01 0.0000000000e+00 -2.4500115339e-02
     vertex 6.6598292929e-01 0.0000000000e+00 -3.9369353131e-02
     vertex 6.6647411774e-01 2.5000000000e+00 -3.6050018935e-02
   endloop
 endfacet
 facet normal  7.3498301291e-02 1.3097008648e-03 -9.9729448228e-01
   outer loop
     vertex 6.6598292929e-01 0.0000000000e+00 -3.9369353131e-02
     vertex 4.9385625768e-01 2.5000000000e+00 -4.8771556768e-02
     vertex 6.6647411774e-01 2.5000000000e+00 -3.6050018935e-02
   endloop
 endfacet
 facet normal  8.0013422410e-02 1.7601602134e-03 -9.9679223215e-01
   outer loop
     vertex 6.6598292929e-01 0.0000000000e+00 -3.9369353131e-02
     vertex 4.9301260620e-01 0.0000000000e+00 -5.3253838864e-02
     vertex 4.9385625768e-01 2.5000000000e+00 -4.8771556768e-02
   endloop
 endfacet
 facet normal  3.8480284442e-02 1.7785965173e-03 -9.9925777670e-01
   outer loop
     vertex 4.9301260620e-01 0.0000000000e+00 -5.3253838864e-02
     vertex 3.1962774258e-01 0.0000000000e+00 -5.9930693451e-02
     vertex 4.9385625768e-01 2.5000000000e+00 -4.8771556768e-02
   endloop
 endfacet
 facet normal  3.5560864533e-02 1.9825360403e-03 -9.9936554597e-01
   outer loop
     vertex 4.9385625768e-01 2.5000000000e+00 -4.8771556768e-02
     vertex 3.1962774258e-01 0.0000000000e+00 -5.9930693451e-02
     vertex 3.2088789998e-01 2.5000000000e+00 -5.4926366048e-02
   endloop
 endfacet
 facet normal  -2.8559666530e-02 2.0153062377e-03 -9.9959005797e-01
   outer loop
     vertex 3.1962774258e-01 0.0000000000e+00 -5.9930693451e-02
     vertex 1.7756917577e-01 0.0000000000e+00 -5.5871884279e-02
     vertex 3.2088789998e-01 2.5000000000e+00 -5.4926366048e-02
   endloop
 endfacet
 facet normal  -2.5473864484e-02 1.8384366239e-03 -9.9967379799e-01
   outer loop
     vertex 3.2088789998e-01 2.5000000000e+00 -5.4926366048e-02
     vertex 1.7756917577e-01 0.0000000000e+00 -5.5871884279e-02
     vertex 1.7917012932e-01 2.5000000000e+00 -5.1315088757e-02
   endloop
 endfacet
 facet normal  -1.3008085085e-01 1.8905293574e-03 -9.9150158756e-01
   outer loop
     vertex 1.7756917577e-01 0.0000000000e+00 -5.5871884279e-02
     vertex 7.9850613208e-02 0.0000000000e+00 -4.3051618612e-02
     vertex 1.7917012932e-01 2.5000000000e+00 -5.1315088757e-02
   endloop
 endfacet
 facet normal  -1.1761552196e-01 1.3901638628e-03 -9.9305823416e-01
   outer loop
     vertex 1.7917012932e-01 2.5000000000e+00 -5.1315088757e-02
     vertex 7.9850613208e-02 0.0000000000e+00 -4.3051618612e-02
     vertex 8.1541887799e-02 2.5000000000e+00 -3.9752225484e-02
   endloop
 endfacet
 facet normal  -3.0208424453e-01 1.4624613018e-03 -9.5328011120e-01
   outer loop
     vertex 7.9850613208e-02 0.0000000000e+00 -4.3051618612e-02
     vertex 2.2056384418e-02 0.0000000000e+00 -2.4737247277e-02
     vertex 8.1541887799e-02 2.5000000000e+00 -3.9752225484e-02
   endloop
 endfacet
 facet normal  -2.7337034369e-01 7.2741442461e-04 -9.6190858508e-01
   outer loop
     vertex 8.1541887799e-02 2.5000000000e+00 -3.9752225484e-02
     vertex 2.2056384418e-02 0.0000000000e+00 -2.4737247277e-02
     vertex 2.3369022051e-02 2.5000000000e+00 -2.3219743552e-02
   endloop
 endfacet
 facet normal  -7.4639360051e-01 7.9585982697e-04 -6.6550428978e-01
   outer loop
     vertex 2.2056384418e-02 0.0000000000e+00 -2.4737247277e-02
     vertex 0.0000000000e+00 0.0000000000e+00 0.0000000000e+00
     vertex 2.3369022051e-02 2.5000000000e+00 -2.3219743552e-02
   endloop
 endfacet
 facet normal  -7.0483747004e-01 0.0000000000e+00 -7.0936883272e-01
   outer loop
     vertex 2.3369022051e-02 2.5000000000e+00 -2.3219743552e-02
     vertex 0.0000000000e+00 0.0000000000e+00 0.0000000000e+00
     vertex 0.0000000000e+00 2.5000000000e+00 0.0000000000e+00
   endloop
 endfacet
 facet normal  -7.0483747004e-01 0.0000000000e+00 7.0936883272e-01
   outer loop
     vertex 0.0000000000e+00 0.0000000000e+00 0.0000000000e+00
     vertex 2.3369022051e-02 2.5000000000e+00 2.3219743552e-02
     vertex 0.0000000000e+00 2.5000000000e+00 0.0000000000e+00
   endloop
 endfacet
 facet normal  -7.4639360051e-01 7.9585982697e-04 6.6550428978e-01
   outer loop
     vertex 0.0000000000e+00 0.0000000000e+00 0.0000000000e+00
     vertex 2.2056384418e-02 0.0000000000e+00 2.4737247277e-02
     vertex 2.3369022051e-02 2.5000000000e+00 2.3219743552e-02
   endloop
 endfacet
 facet normal  -2.7337034369e-01 7.2741442461e-04 9.6190858508e-01
   outer loop
     vertex 2.2056384418e-02 0.0000000000e+00 2.4737247277e-02
     vertex 8.1541887799e-02 2.5000000000e+00 3.9752225484e-02
     vertex 2.3369022051e-02 2.5000000000e+00 2.3219743552e-02
   endloop
 endfacet
 facet normal  -3.0208424453e-01 1.4624613018e-03 9.5328011120e-01
   outer loop
     vertex 2.2056384418e-02 0.0000000000e+00 2.4737247277e-02
     vertex 7.9850613208e-02 0.0000000000e+00 4.3051618612e-02
     vertex 8.1541887799e-02 2.5000000000e+00 3.9752225484e-02
   endloop
 endfacet
 facet normal  -1.1761552196e-01 1.3901638628e-03 9.9305823416e-01
   outer loop
     vertex 7.9850613208e-02 0.0000000000e+00 4.3051618612e-02
     vertex 1.7917012932e-01 2.5000000000e+00 5.1315088757e-02
     vertex 8.1541887799e-02 2.5000000000e+00 3.9752225484e-02
   endloop
 endfacet
 facet normal  -1.3008085085e-01 1.8905293574e-03 9.9150158756e-01
   outer loop
     vertex 7.9850613208e-02 0.0000000000e+00 4.3051618612e-02
     vertex 1.7756917577e-01 0.0000000000e+00 5.5871884279e-02
     vertex 1.7917012932e-01 2.5000000000e+00 5.1315088757e-02
   endloop
 endfacet
 facet normal  -2.5473864484e-02 1.8384366239e-03 9.9967379799e-01
   outer loop
     vertex 1.7756917577e-01 0.0000000000e+00 5.5871884279e-02
     vertex 3.2088789998e-01 2.5000000000e+00 5.4926366048e-02
     vertex 1.7917012932e-01 2.5000000000e+00 5.1315088757e-02
   endloop
 endfacet
 facet normal  -2.8559666530e-02 2.0153062377e-03 9.9959005797e-01
   outer loop
     vertex 1.7756917577e-01 0.0000000000e+00 5.5871884279e-02
     vertex 3.1962774258e-01 0.0000000000e+00 5.9930693451e-02
     vertex 3.2088789998e-01 2.5000000000e+00 5.4926366048e-02
   endloop
 endfacet
 facet normal  3.5560864533e-02 1.9825360403e-03 9.9936554597e-01
   outer loop
     vertex 3.1962774258e-01 0.0000000000e+00 5.9930693451e-02
     vertex 4.9385625768e-01 2.5000000000e+00 4.8771556768e-02
     vertex 3.2088789998e-01 2.5000000000e+00 5.4926366048e-02
   endloop
 endfacet
 facet normal  3.8480284442e-02 1.7785965173e-03 9.9925777670e-01
   outer loop
     vertex 3.1962774258e-01 0.0000000000e+00 5.9930693451e-02
     vertex 4.9301260620e-01 0.0000000000e+00 5.3253838864e-02
     vertex 4.9385625768e-01 2.5000000000e+00 4.8771556768e-02
   endloop
 endfacet
 facet normal  8.0013422410e-02 1.7601602134e-03 9.9679223215e-01
   outer loop
     vertex 4.9301260620e-01 0.0000000000e+00 5.3253838864e-02
     vertex 6.6598292929e-01 0.0000000000e+00 3.9369353131e-02
     vertex 4.9385625768e-01 2.5000000000e+00 4.8771556768e-02
   endloop
 endfacet
 facet normal  7.3498301291e-02 1.3097008648e-03 9.9729448228e-01
   outer loop
     vertex 4.9385625768e-01 2.5000000000e+00 4.8771556768e-02
     vertex 6.6598292929e-01 0.0000000000e+00 3.9369353131e-02
     vertex 6.6647411774e-01 2.5000000000e+00 3.6050018935e-02
   endloop
 endfacet
 facet normal  1.0459886727e-01 1.2998981561e-03 9.9451364356e-01
   outer loop
     vertex 6.6598292929e-01 0.0000000000e+00 3.9369353131e-02
     vertex 8.0735788143e-01 0.0000000000e+00 2.4500115339e-02
     vertex 6.6647411774e-01 2.5000000000e+00 3.6050018935e-02
   endloop
 endfacet
 facet normal  9.6026215498e-02 8.1280369733e-04 9.9537847339e-01
   outer loop
     vertex 6.6647411774e-01 2.5000000000e+00 3.6050018935e-02
     vertex 8.0735788143e-01 0.0000000000e+00 2.4500115339e-02
     vertex 8.0760981306e-01 2.5000000000e+00 2.2434367145e-02
   endloop
 endfacet
 facet normal  1.2003755677e-01 8.0822782330e-04 9.9276902235e-01
   outer loop
     vertex 8.0735788143e-01 0.0000000000e+00 2.4500115339e-02
     vertex 9.0526556930e-01 0.0000000000e+00 1.2661913928e-02
     vertex 8.0760981306e-01 2.5000000000e+00 2.2434367145e-02
   endloop
 endfacet
 facet normal  1.1019457059e-01 4.1927827048e-04 9.9390994603e-01
   outer loop
     vertex 8.0760981306e-01 2.5000000000e+00 2.2434367145e-02
     vertex 9.0526556930e-01 0.0000000000e+00 1.2661913928e-02
     vertex 9.0537781108e-01 2.5000000000e+00 1.1594851349e-02
   endloop
 endfacet
 facet normal  1.3014855540e-01 4.1735139402e-04 9.9149441720e-01
   outer loop
     vertex 9.0526556930e-01 0.0000000000e+00 1.2661913928e-02
     vertex 9.6554119692e-01 0.0000000000e+00 4.7498311941e-03
     vertex 9.0537781108e-01 2.5000000000e+00 1.1594851349e-02
   endloop
 endfacet
 facet normal  1.1948599528e-01 1.5708018762e-04 9.9283587378e-01
   outer loop
     vertex 9.0537781108e-01 2.5000000000e+00 1.1594851349e-02
     vertex 9.6554119692e-01 0.0000000000e+00 4.7498311941e-03
     vertex 9.6557914469e-01 2.5000000000e+00 4.3497301231e-03
   endloop
 endfacet
 facet normal  1.3654973688e-01 1.5646865902e-04 9.9063320400e-01
   outer loop
     vertex 9.6554119692e-01 0.0000000000e+00 4.7498311941e-03
     vertex 1.0000000000e+00 0.0000000000e+00 0.0000000000e+00
     vertex 9.6557914469e-01 2.5000000000e+00 4.3497301231e-03
   endloop
 endfacet
 facet normal  1.2537195494e-01 -0.0000000000e+00 9.9210980890e-01
   outer loop
     vertex 9.6557914469e-01 2.5000000000e+00 4.3497301231e-03
     vertex 1.0000000000e+00 0.0000000000e+00 0.0000000000e+00
     vertex 1.0000000000e+00 2.5000000000e+00 0.0000000000e+00
   endloop
 endfacet
 facet normal  1.1412139534e-01 0.0000000000e+00 -9.9346681229e-01
   outer loop
     vertex 1.0000000000e+00 2.5000000000e+00 0.0000000000e+00
     vertex 9.6561709246e-01 5.0000000000e+00 -3.9496290522e-03
     vertex 1.0000000000e+00 5.0000000000e+00 0.0000000000e+00
   endloop
 endfacet
 facet normal  1.2537195340e-01 1.5687464233e-04 -9.9210979669e-01
   outer loop
     vertex 1.0000000000e+00 2.5000000000e+00 0.0000000000e+00
     vertex 9.6557914469e-01 2.5000000000e+00 -4.3497301231e-03
     vertex 9.6561709246e-01 5.0000000000e+00 -3.9496290522e-03
   endloop
 endfacet
 facet normal  1.0875542143e-01 1.5744034229e-04 -9.9406852557e-01
   outer loop
     vertex 9.6557914469e-01 2.5000000000e+00 -4.3497301231e-03
     vertex 9.0549005286e-01 5.0000000000e+00 -1.0527788770e-02
     vertex 9.6561709246e-01 5.0000000000e+00 -3.9496290522e-03
   endloop
 endfacet
 facet normal  1.1948598629e-01 4.1840264368e-04 -9.9283579912e-01
   outer loop
     vertex 9.6557914469e-01 2.5000000000e+00 -4.3497301231e-03
     vertex 9.0537781108e-01 2.5000000000e+00 -1.1594851349e-02
     vertex 9.0549005286e-01 5.0000000000e+00 -1.0527788770e-02
   endloop
 endfacet
 facet normal  1.0029072256e-01 4.2017029339e-04 -9.9495808677e-01
   outer loop
     vertex 9.0537781108e-01 2.5000000000e+00 -1.1594851349e-02
     vertex 8.0786174469e-01 5.0000000000e+00 -2.0368618951e-02
     vertex 9.0549005286e-01 5.0000000000e+00 -1.0527788770e-02
   endloop
 endfacet
 facet normal  1.1019454411e-01 8.1016227686e-04 -9.9390970721e-01
   outer loop
     vertex 9.0537781108e-01 2.5000000000e+00 -1.1594851349e-02
     vertex 8.0760981306e-01 2.5000000000e+00 -2.2434367145e-02
     vertex 8.0786174469e-01 5.0000000000e+00 -2.0368618951e-02
   endloop
 endfacet
 facet normal  8.7402866646e-02 8.1432897535e-04 -9.9617271383e-01
   outer loop
     vertex 8.0760981306e-01 2.5000000000e+00 -2.2434367145e-02
     vertex 6.6696530618e-01 5.0000000000e+00 -3.2730684740e-02
     vertex 8.0786174469e-01 5.0000000000e+00 -2.0368618951e-02
   endloop
 endfacet
 facet normal  9.6026165734e-02 1.3027300597e-03 -9.9537795756e-01
   outer loop
     vertex 8.0760981306e-01 2.5000000000e+00 -2.2434367145e-02
     vertex 6.6647411774e-01 2.5000000000e+00 -3.6050018935e-02
     vertex 6.6696530618e-01 5.0000000000e+00 -3.2730684740e-02
   endloop
 endfacet
 facet normal  6.6946983349e-02 1.3116003747e-03 -9.9775567206e-01
   outer loop
     vertex 6.6647411774e-01 2.5000000000e+00 -3.6050018935e-02
     vertex 4.9469990917e-01 5.0000000000e+00 -4.4289274671e-02
     vertex 6.6696530618e-01 5.0000000000e+00 -3.2730684740e-02
   endloop
 endfacet
 facet normal  7.3498250072e-02 1.7632580719e-03 -9.9729378729e-01
   outer loop
     vertex 6.6647411774e-01 2.5000000000e+00 -3.6050018935e-02
     vertex 4.9385625768e-01 2.5000000000e+00 -4.8771556768e-02
     vertex 4.9469990917e-01 5.0000000000e+00 -4.4289274671e-02
   endloop
 endfacet
 facet normal  3.5560878097e-02 1.7797756062e-03 -9.9936592715e-01
   outer loop
     vertex 4.9385625768e-01 2.5000000000e+00 -4.8771556768e-02
     vertex 3.2088789998e-01 2.5000000000e+00 -5.4926366048e-02
     vertex 4.9469990917e-01 5.0000000000e+00 -4.4289274671e-02
   endloop
 endfacet
 facet normal  3.2626448375e-02 1.9842155443e-03 -9.9946564611e-01
   outer loop
     vertex 4.9469990917e-01 5.0000000000e+00 -4.4289274671e-02
     vertex 3.2088789998e-01 2.5000000000e+00 -5.4926366048e-02
     vertex 3.2214805739e-01 5.0000000000e+00 -4.9922038645e-02
   endloop
 endfacet
 facet normal  -2.5473855874e-02 2.0139177435e-03 -9.9967346009e-01
   outer loop
     vertex 3.2088789998e-01 2.5000000000e+00 -5.4926366048e-02
     vertex 1.7917012932e-01 2.5000000000e+00 -5.1315088757e-02
     vertex 3.2214805739e-01 5.0000000000e+00 -4.9922038645e-02
   endloop
 endfacet
 facet normal  -2.2372442297e-02 1.8365858141e-03 -9.9974801864e-01
   outer loop
     vertex 3.2214805739e-01 5.0000000000e+00 -4.9922038645e-02
     vertex 1.7917012932e-01 2.5000000000e+00 -5.1315088757e-02
     vertex 1.8077108286e-01 5.0000000000e+00 -4.6758293235e-02
   endloop
 endfacet
 facet normal  -1.1761542656e-01 1.8853825914e-03 -9.9305742874e-01
   outer loop
     vertex 1.7917012932e-01 2.5000000000e+00 -5.1315088757e-02
     vertex 8.1541887799e-02 2.5000000000e+00 -3.9752225484e-02
     vertex 1.8077108286e-01 5.0000000000e+00 -4.6758293235e-02
   endloop
 endfacet
 facet normal  -1.0507100544e-01 1.3835323267e-03 -9.9446375985e-01
   outer loop
     vertex 1.8077108286e-01 5.0000000000e+00 -4.6758293235e-02
     vertex 8.1541887799e-02 2.5000000000e+00 -3.9752225484e-02
     vertex 8.3233162389e-02 5.0000000000e+00 -3.6452832356e-02
   endloop
 endfacet
 facet normal  -2.7337012688e-01 1.4544224030e-03 -9.6190782219e-01
   outer loop
     vertex 8.1541887799e-02 2.5000000000e+00 -3.9752225484e-02
     vertex 2.3369022051e-02 2.5000000000e+00 -2.3219743552e-02
     vertex 8.3233162389e-02 5.0000000000e+00 -3.6452832356e-02
   endloop
 endfacet
 facet normal  -2.4429211700e-01 7.1687701832e-04 -9.6970142191e-01
   outer loop
     vertex 8.3233162389e-02 5.0000000000e+00 -3.6452832356e-02
     vertex 2.3369022051e-02 2.5000000000e+00 -2.3219743552e-02
     vertex 2.4681659684e-02 5.0000000000e+00 -2.1702239828e-02
   endloop
 endfacet
 facet normal  -7.0483724411e-01 8.0066615695e-04 -7.0936860534e-01
   outer loop
     vertex 2.3369022051e-02 2.5000000000e+00 -2.3219743552e-02
     vertex 0.0000000000e+00 2.5000000000e+00 0.0000000000e+00
     vertex 2.4681659684e-02 5.0000000000e+00 -2.1702239828e-02
   endloop
 endfacet
 facet normal  -6.6032568963e-01 0.0000000000e+00 -7.5097934966e-01
   outer loop
     vertex 2.4681659684e-02 5.0000000000e+00 -2.1702239828e-02
     vertex 0.0000000000e+00 2.5000000000e+00 0.0000000000e+00
     vertex 0.0000000000e+00 5.0000000000e+00 0.0000000000e+00
   endloop
 endfacet
 facet normal  -6.6032568963e-01 0.0000000000e+00 7.5097934966e-01
   outer loop
     vertex 0.0000000000e+00 2.5000000000e+00 0.0000000000e+00
     vertex 2.4681659684e-02 5.0000000000e+00 2.1702239828e-02
     vertex 0.0000000000e+00 5.0000000000e+00 0.0000000000e+00
   endloop
 endfacet
 facet normal  -7.0483724411e-01 8.0066615695e-04 7.0936860534e-01
   outer loop
     vertex 0.0000000000e+00 2.5000000000e+00 0.0000000000e+00
     vertex 2.3369022051e-02 2.5000000000e+00 2.3219743552e-02
     vertex 2.4681659684e-02 5.0000000000e+00 2.1702239828e-02
   endloop
 endfacet
 facet normal  -2.4429211700e-01 7.1687701832e-04 9.6970142191e-01
   outer loop
     vertex 2.3369022051e-02 2.5000000000e+00 2.3219743552e-02
     vertex 8.3233162389e-02 5.0000000000e+00 3.6452832356e-02
     vertex 2.4681659684e-02 5.0000000000e+00 2.1702239828e-02
   endloop
 endfacet
 facet normal  -2.7337012688e-01 1.4544224030e-03 9.6190782219e-01
   outer loop
     vertex 2.3369022051e-02 2.5000000000e+00 2.3219743552e-02
     vertex 8.1541887799e-02 2.5000000000e+00 3.9752225484e-02
     vertex 8.3233162389e-02 5.0000000000e+00 3.6452832356e-02
   endloop
 endfacet
 facet normal  -1.0507100544e-01 1.3835323267e-03 9.9446375985e-01
   outer loop
     vertex 8.1541887799e-02 2.5000000000e+00 3.9752225484e-02
     vertex 1.8077108286e-01 5.0000000000e+00 4.6758293235e-02
     vertex 8.3233162389e-02 5.0000000000e+00 3.6452832356e-02
   endloop
 endfacet
 facet normal  -1.1761542656e-01 1.8853825914e-03 9.9305742874e-01
   outer loop
     vertex 8.1541887799e-02 2.5000000000e+00 3.9752225484e-02
     vertex 1.7917012932e-01 2.5000000000e+00 5.1315088757e-02
     vertex 1.8077108286e-01 5.0000000000e+00 4.6758293235e-02
   endloop
 endfacet
 facet normal  -2.2372442297e-02 1.8365858141e-03 9.9974801864e-01
   outer loop
     vertex 1.7917012932e-01 2.5000000000e+00 5.1315088757e-02
     vertex 3.2214805739e-01 5.0000000000e+00 4.9922038645e-02
     vertex 1.8077108286e-01 5.0000000000e+00 4.6758293235e-02
   endloop
 endfacet
 facet normal  -2.5473855874e-02 2.0139177435e-03 9.9967346009e-01
   outer loop
     vertex 1.7917012932e-01 2.5000000000e+00 5.1315088757e-02
     vertex 3.2088789998e-01 2.5000000000e+00 5.4926366048e-02
     vertex 3.2214805739e-01 5.0000000000e+00 4.9922038645e-02
   endloop
 endfacet
 facet normal  3.2626448375e-02 1.9842155443e-03 9.9946564611e-01
   outer loop
     vertex 3.2088789998e-01 2.5000000000e+00 5.4926366048e-02
     vertex 4.9469990917e-01 5.0000000000e+00 4.4289274671e-02
     vertex 3.2214805739e-01 5.0000000000e+00 4.9922038645e-02
   endloop
 endfacet
 facet normal  3.5560878097e-02 1.7797756062e-03 9.9936592715e-01
   outer loop
     vertex 3.2088789998e-01 2.5000000000e+00 5.4926366048e-02
     vertex 4.9385625768e-01 2.5000000000e+00 4.8771556768e-02
     vertex 4.9469990917e-01 5.0000000000e+00 4.4289274671e-02
   endloop
 endfacet
 facet normal  7.3498250072e-02 1.7632580719e-03 9.9729378729e-01
   outer loop
     vertex 4.9385625768e-01 2.5000000000e+00 4.8771556768e-02
     vertex 6.6647411774e-01 2.5000000000e+00 3.6050018935e-02
     vertex 4.9469990917e-01 5.0000000000e+00 4.4289274671e-02
   endloop
 endfacet
 facet normal  6.6946983349e-02 1.3116003747e-03 9.9775567206e-01
   outer loop
     vertex 4.9469990917e-01 5.0000000000e+00 4.4289274671e-02
     vertex 6.6647411774e-01 2.5000000000e+00 3.6050018935e-02
     vertex 6.6696530618e-01 5.0000000000e+00 3.2730684740e-02
   endloop
 endfacet
 facet normal  9.6026165734e-02 1.3027300597e-03 9.9537795756e-01
   outer loop
     vertex 6.6647411774e-01 2.5000000000e+00 3.6050018935e-02
     vertex 8.0760981306e-01 2.5000000000e+00 2.2434367145e-02
     vertex 6.6696530618e-01 5.0000000000e+00 3.2730684740e-02
   endloop
 endfacet
 facet normal  8.7402866646e-02 8.1432897535e-04 9.9617271383e-01
   outer loop
     vertex 6.6696530618e-01 5.0000000000e+00 3.2730684740e-02
     vertex 8.0760981306e-01 2.5000000000e+00 2.2434367145e-02
     vertex 8.0786174469e-01 5.0000000000e+00 2.0368618951e-02
   endloop
 endfacet
 facet normal  1.1019454411e-01 8.1016227686e-04 9.9390970721e-01
   outer loop
     vertex 8.0760981306e-01 2.5000000000e+00 2.2434367145e-02
     vertex 9.0537781108e-01 2.5000000000e+00 1.1594851349e-02
     vertex 8.0786174469e-01 5.0000000000e+00 2.0368618951e-02
   endloop
 endfacet
 facet normal  1.0029072256e-01 4.2017029339e-04 9.9495808677e-01
   outer loop
     vertex 8.0786174469e-01 5.0000000000e+00 2.0368618951e-02
     vertex 9.0537781108e-01 2.5000000000e+00 1.1594851349e-02
     vertex 9.0549005286e-01 5.0000000000e+00 1.0527788770e-02
   endloop
 endfacet
 facet normal  1.1948598629e-01 4.1840264368e-04 9.9283579912e-01
   outer loop
     vertex 9.0537781108e-01 2.5000000000e+00 1.1594851349e-02
     vertex 9.6557914469e-01 2.5000000000e+00 4.3497301231e-03
     vertex 9.0549005286e-01 5.0000000000e+00 1.0527788770e-02
   endloop
 endfacet
 facet normal  1.0875542143e-01 1.5744034229e-04 9.9406852557e-01
   outer loop
     vertex 9.0549005286e-01 5.0000000000e+00 1.0527788770e-02
     vertex 9.6557914469e-01 2.5000000000e+00 4.3497301231e-03
     vertex 9.6561709246e-01 5.0000000000e+00 3.9496290522e-03
   endloop
 endfacet
 facet normal  1.2537195340e-01 1.5687464233e-04 9.9210979669e-01
   outer loop
     vertex 9.6557914469e-01 2.5000000000e+00 4.3497301231e-03
     vertex 1.0000000000e+00 2.5000000000e+00 0.0000000000e+00
     vertex 9.6561709246e-01 5.0000000000e+00 3.9496290522e-03
   endloop
 endfacet
 facet normal  1.1412139534e-01 -0.0000000000e+00 9.9346681229e-01
   outer loop
     vertex 9.6561709246e-01 5.0000000000e+00 3.9496290522e-03
     vertex 1.0000000000e+00 2.5000000000e+00 0.0000000000e+00
     vertex 1.0000000000e+00 5.0000000000e+00 0.0000000000e+00
   endloop
 endfacet
 facet normal  0.0000000000e+00 1.0000000000e+00 0.0000000000e+00
   outer loop
     vertex 1.0000000000e+00 5.0000000000e+00 0.0000000000e+00
     vertex 9.6561709246e-01 5.0000000000e+00 -3.9496290522e-03
     vertex 9.6561709246e-01 5.0000000000e+00 -1.9748145261e-03
   endloop
 endfacet
 facet normal  0.0000000000e+00 1.0000000000e+00 0.0000000000e+00
   outer loop
     vertex 9.6561709246e-01 5.0000000000e+00 -3.9496290522e-03
     vertex 9.0549005286e-01 5.0000000000e+00 -5.2638943848e-03
     vertex 9.6561709246e-01 5.0000000000e+00 -1.9748145261e-03
   endloop
 endfacet
 facet normal  0.0000000000e+00 1.0000000000e+00 0.0000000000e+00
   outer loop
     vertex 9.6561709246e-01 5.0000000000e+00 -3.9496290522e-03
     vertex 9.0549005286e-01 5.0000000000e+00 -1.0527788770e-02
     vertex 9.0549005286e-01 5.0000000000e+00 -5.2638943848e-03
   endloop
 endfacet
 facet normal  -0.0000000000e+00 1.0000000000e+00 0.0000000000e+00
   outer loop
     vertex 9.0549005286e-01 5.0000000000e+00 -1.0527788770e-02
     vertex 8.0786174469e-01 5.0000000000e+00 -1.0184309475e-02
     vertex 9.0549005286e-01 5.0000000000e+00 -5.2638943848e-03
   endloop
 endfacet
 facet normal  0.0000000000e+00 1.0000000000e+00 -0.0000000000e+00
   outer loop
     vertex 9.0549005286e-01 5.0000000000e+00 -1.0527788770e-02
     vertex 8.0786174469e-01 5.0000000000e+00 -2.0368618951e-02
     vertex 8.0786174469e-01 5.0000000000e+00 -1.0184309475e-02
   endloop
 endfacet
 facet normal  -0.0000000000e+00 1.0000000000e+00 0.0000000000e+00
   outer loop
     vertex 8.0786174469e-01 5.0000000000e+00 -2.0368618951e-02
     vertex 6.6696530618e-01 5.0000000000e+00 -1.6365342370e-02
     vertex 8.0786174469e-01 5.0000000000e+00 -1.0184309475e-02
   endloop
 endfacet
 facet normal  0.0000000000e+00 1.0000000000e+00 -0.0000000000e+00
   outer loop
     vertex 8.0786174469e-01 5.0000000000e+00 -2.0368618951e-02
     vertex 6.6696530618e-01 5.0000000000e+00 -3.2730684740e-02
     vertex 6.6696530618e-01 5.0000000000e+00 -1.6365342370e-02
   endloop
 endfacet
 facet normal  -0.0000000000e+00 1.0000000000e+00 0.0000000000e+00
   outer loop
     vertex 6.6696530618e-01 5.0000000000e+00 -3.2730684740e-02
     vertex 4.9469990917e-01 5.0000000000e+00 -2.2144637336e-02
     vertex 6.6696530618e-01 5.0000000000e+00 -1.6365342370e-02
   endloop
 endfacet
 facet normal  0.0000000000e+00 1.0000000000e+00 -0.0000000000e+00
   outer loop
     vertex 6.6696530618e-01 5.0000000000e+00 -3.2730684740e-02
     vertex 4.9469990917e-01 5.0000000000e+00 -4.4289274671e-02
     vertex 4.9469990917e-01 5.0000000000e+00 -2.2144637336e-02
   endloop
 endfacet
 facet normal  0.0000000000e+00 1.0000000000e+00 0.0000000000e+00
   outer loop
     vertex 4.9469990917e-01 5.0000000000e+00 -4.4289274671e-02
     vertex 3.2214805739e-01 5.0000000000e+00 -4.9922038645e-02
     vertex 4.9469990917e-01 5.0000000000e+00 -2.2144637336e-02
   endloop
 endfacet
 facet normal  0.0000000000e+00 1.0000000000e+00 0.0000000000e+00
   outer loop
     vertex 4.9469990917e-01 5.0000000000e+00 -2.2144637336e-02
     vertex 3.2214805739e-01 5.0000000000e+00 -4.9922038645e-02
     vertex 3.2214805739e-01 5.0000000000e+00 -2.4961019322e-02
   endloop
 endfacet
 facet normal  -0.0000000000e+00 1.0000000000e+00 0.0000000000e+00
   outer loop
     vertex 3.2214805739e-01 5.0000000000e+00 -4.9922038645e-02
     vertex 1.8077108286e-01 5.0000000000e+00 -4.6758293235e-02
     vertex 3.2214805739e-01 5.0000000000e+00 -2.4961019322e-02
   endloop
 endfacet
 facet normal  0.0000000000e+00 1.0000000000e+00 -0.0000000000e+00
   outer loop
     vertex 3.2214805739e-01 5.0000000000e+00 -2.4961019322e-02
     vertex 1.8077108286e-01 5.0000000000e+00 -4.6758293235e-02
     vertex 1.8077108286e-01 5.0000000000e+00 -2.3379146618e-02
   endloop
 endfacet
 facet normal  -0.0000000000e+00 1.0000000000e+00 0.0000000000e+00
   outer loop
     vertex 1.8077108286e-01 5.0000000000e+00 -4.6758293235e-02
     vertex 8.3233162389e-02 5.0000000000e+00 -3.6452832356e-02
     vertex 1.8077108286e-01 5.0000000000e+00 -2.3379146618e-02
   endloop
 endfacet
 facet normal  0.0000000000e+00 1.0000000000e+00 -0.0000000000e+00
   outer loop
     vertex 1.8077108286e-01 5.0000000000e+00 -2.3379146618e-02
     vertex 8.3233162389e-02 5.0000000000e+00 -3.6452832356e-02
     vertex 8.3233162389e-02 5.0000000000e+00 -1.8226416178e-02
   endloop
 endfacet
 facet normal  -0.0000000000e+00 1.0000000000e+00 0.0000000000e+00
   outer loop
     vertex 8.3233162389e-02 5.0000000000e+00 -3.6452832356e-02
     vertex 2.4681659684e-02 5.0000000000e+00 -2.1702239828e-02
     vertex 8.3233162389e-02 5.0000000000e+00 -1.8226416178e-02
   endloop
 endfacet
 facet normal  0.0000000000e+00 1.0000000000e+00 0.0000000000e+00
   outer loop
     vertex 8.3233162389e-02 5.0000000000e+00 -1.8226416178e-02
     vertex 2.4681659684e-02 5.0000000000e+00 -2.1702239828e-02
     vertex 2.4681659684e-02 5.0000000000e+00 -1.0851119914e-02
   endloop
 endfacet
 facet normal  0.0000000000e+00 1.0000000000e+00 0.0000000000e+00
   outer loop
     vertex 2.4681659684e-02 5.0000000000e+00 -2.1702239828e-02
     vertex 0.0000000000e+00 5.0000000000e+00 0.0000000000e+00
     vertex 2.4681659684e-02 5.0000000000e+00 -1.0851119914e-02
   endloop
 endfacet
 facet normal  0.0000000000e+00 1.0000000000e+00 0.0000000000e+00
   outer loop
     vertex 0.0000000000e+00 5.0000000000e+00 0.0000000000e+00
     vertex 2.4681659684e-02 5.0000000000e+00 2.1702239828e-02
     vertex 2.4681659684e-02 5.0000000000e+00 1.0851119914e-02
   endloop
 endfacet
 facet normal  0.0000000000e+00 1.0000000000e+00 0.0000000000e+00
   outer loop
     vertex 2.4681659684e-02 5.0000000000e+00 2.1702239828e-02
     vertex 8.3233162389e-02 5.0000000000e+00 1.8226416178e-02
     vertex 2.4681659684e-02 5.0000000000e+00 1.0851119914e-02
   endloop
 endfacet
 facet normal  0.0000000000e+00 1.0000000000e+00 0.0000000000e+00
   outer loop
     vertex 2.4681659684e-02 5.0000000000e+00 2.1702239828e-02
     vertex 8.3233162389e-02 5.0000000000e+00 3.6452832356e-02
     vertex 8.3233162389e-02 5.0000000000e+00 1.8226416178e-02
   endloop
 endfacet
 facet normal  0.0000000000e+00 1.0000000000e+00 0.0000000000e+00
   outer loop
     vertex 8.3233162389e-02 5.0000000000e+00 3.6452832356e-02
     vertex 1.8077108286e-01 5.0000000000e+00 2.3379146618e-02
     vertex 8.3233162389e-02 5.0000000000e+00 1.8226416178e-02
   endloop
 endfacet
 facet normal  0.0000000000e+00 1.0000000000e+00 0.0000000000e+00
   outer loop
     vertex 8.3233162389e-02 5.0000000000e+00 3.6452832356e-02
     vertex 1.8077108286e-01 5.0000000000e+00 4.6758293235e-02
     vertex 1.8077108286e-01 5.0000000000e+00 2.3379146618e-02
   endloop
 endfacet
 facet normal  0.0000000000e+00 1.0000000000e+00 0.0000000000e+00
   outer loop
     vertex 1.8077108286e-01 5.0000000000e+00 4.6758293235e-02
     vertex 3.2214805739e-01 5.0000000000e+00 2.4961019322e-02
     vertex 1.8077108286e-01 5.0000000000e+00 2.3379146618e-02
   endloop
 endfacet
 facet normal  0.0000000000e+00 1.0000000000e+00 0.0000000000e+00
   outer loop
     vertex 1.8077108286e-01 5.0000000000e+00 4.6758293235e-02
     vertex 3.2214805739e-01 5.0000000000e+00 4.9922038645e-02
     vertex 3.2214805739e-01 5.0000000000e+00 2.4961019322e-02
   endloop
 endfacet
 facet normal  0.0000000000e+00 1.0000000000e+00 0.0000000000e+00
   outer loop
     vertex 3.2214805739e-01 5.0000000000e+00 4.9922038645e-02
     vertex 4.9469990917e-01 5.0000000000e+00 2.2144637336e-02
     vertex 3.2214805739e-01 5.0000000000e+00 2.4961019322e-02
   endloop
 endfacet
 facet normal  0.0000000000e+00 1.0000000000e+00 0.0000000000e+00
   outer loop
     vertex 3.2214805739e-01 5.0000000000e+00 4.9922038645e-02
     vertex 4.9469990917e-01 5.0000000000e+00 4.4289274671e-02
     vertex 4.9469990917e-01 5.0000000000e+00 2.2144637336e-02
   endloop
 endfacet
 facet normal  0.0000000000e+00 1.0000000000e+00 0.0000000000e+00
   outer loop
     vertex 4.9469990917e-01 5.0000000000e+00 4.4289274671e-02
     vertex 6.6696530618e-01 5.0000000000e+00 3.2730684740e-02
     vertex 4.9469990917e-01 5.0000000000e+00 2.2144637336e-02
   endloop
 endfacet
 facet normal  0.0000000000e+00 1.0000000000e+00 0.0000000000e+00
   outer loop
     vertex 4.9469990917e-01 5.0000000000e+00 2.2144637336e-02
     vertex 6.6696530618e-01 5.0000000000e+00 3.2730684740e-02
     vertex 6.6696530618e-01 5.0000000000e+00 1.6365342370e-02
   endloop
 endfacet
 facet normal  0.0000000000e+00 1.0000000000e+00 0.0000000000e+00
   outer loop
     vertex 6.6696530618e-01 5.0000000000e+00 3.2730684740e-02
     vertex 8.0786174469e-01 5.0000000000e+00 2.0368618951e-02
     vertex 6.6696530618e-01 5.0000000000e+00 1.6365342370e-02
   endloop
 endfacet
 facet normal  0.0000000000e+00 1.0000000000e+00 0.0000000000e+00
   outer loop
     vertex 6.6696530618e-01 5.0000000000e+00 1.6365342370e-02
     vertex 8.0786174469e-01 5.0000000000e+00 2.0368618951e-02
     vertex 8.0786174469e-01 5.0000000000e+00 1.0184309475e-02
   endloop
 endfacet
 facet normal  0.0000000000e+00 1.0000000000e+00 0.0000000000e+00
   outer loop
     vertex 8.0786174469e-01 5.0000000000e+00 2.0368618951e-02
     vertex 9.0549005286e-01 5.0000000000e+00 1.0527788770e-02
     vertex 8.0786174469e-01 5.0000000000e+00 1.0184309475e-02
   endloop
 endfacet
 facet normal  0.0000000000e+00 1.0000000000e+00 0.0000000000e+00
   outer loop
     vertex 8.0786174469e-01 5.0000000000e+00 1.0184309475e-02
     vertex 9.0549005286e-01 5.0000000000e+00 1.0527788770e-02
     vertex 9.0549005286e-01 5.0000000000e+00 5.2638943848e-03
   endloop
 endfacet
 facet normal  0.0000000000e+00 1.0000000000e+00 0.0000000000e+00
   outer loop
     vertex 9.0549005286e-01 5.0000000000e+00 1.0527788770e-02
     vertex 9.6561709246e-01 5.0000000000e+00 3.9496290522e-03
     vertex 9.0549005286e-01 5.0000000000e+00 5.2638943848e-03
   endloop
 endfacet
 facet normal  0.0000000000e+00 1.0000000000e+00 0.0000000000e+00
   outer loop
     vertex 9.0549005286e-01 5.0000000000e+00 5.2638943848e-03
     vertex 9.6561709246e-01 5.0000000000e+00 3.9496290522e-03
     vertex 9.6561709246e-01 5.0000000000e+00 1.9748145261e-03
   endloop
 endfacet
 facet normal  0.0000000000e+00 1.0000000000e+00 0.0000000000e+00
   outer loop
     vertex 9.6561709246e-01 5.0000000000e+00 3.9496290522e-03
     vertex 1.0000000000e+00 5.0000000000e+00 0.0000000000e+00
     vertex 9.6561709246e-01 5.0000000000e+00 1.9748145261e-03
   endloop
 endfacet
 facet normal  0.0000000000e+00 1.0000000000e+00 0.0000000000e+00
   outer loop
     vertex 1.0000000000e+00 5.0000000000e+00 0.0000000000e+00
     vertex 9.6561709246e-01 5.0000000000e+00 -1.9748145261e-03
     vertex 9.6561709246e-01 5.0000000000e+00 -1.9788834051e-16
   endloop
 endfacet
 facet normal  0.0000000000e+00 1.0000000000e+00 0.0000000000e+00
   outer loop
     vertex 9.6561709246e-01 5.0000000000e+00 -1.9748145261e-03
     vertex 9.0549005286e-01 5.0000000000e+00 -3.6023677021e-17
     vertex 9.6561709246e-01 5.0000000000e+00 -1.9788834051e-16
   endloop
 endfacet
 facet normal  0.0000000000e+00 1.0000000000e+00 -0.0000000000e+00
   outer loop
     vertex 9.6561709246e-01 5.0000000000e+00 -1.9748145261e-03
     vertex 9.0549005286e-01 5.0000000000e+00 -5.2638943848e-03
     vertex 9.0549005286e-01 5.0000000000e+00 -3.6023677021e-17
   endloop
 endfacet
 facet normal  0.0000000000e+00 1.0000000000e+00 0.0000000000e+00
   outer loop
     vertex 9.0549005286e-01 5.0000000000e+00 -5.2638943848e-03
     vertex 8.0786174469e-01 5.0000000000e+00 3.0029559672e-17
     vertex 9.0549005286e-01 5.0000000000e+00 -3.6023677021e-17
   endloop
 endfacet
 facet normal  0.0000000000e+00 1.0000000000e+00 -0.0000000000e+00
   outer loop
     vertex 9.0549005286e-01 5.0000000000e+00 -5.2638943848e-03
     vertex 8.0786174469e-01 5.0000000000e+00 -1.0184309475e-02
     vertex 8.0786174469e-01 5.0000000000e+00 3.0029559672e-17
   endloop
 endfacet
 facet normal  -0.0000000000e+00 1.0000000000e+00 0.0000000000e+00
   outer loop
     vertex 8.0786174469e-01 5.0000000000e+00 -1.0184309475e-02
     vertex 6.6696530618e-01 5.0000000000e+00 5.6580167423e-18
     vertex 8.0786174469e-01 5.0000000000e+00 3.0029559672e-17
   endloop
 endfacet
 facet normal  0.0000000000e+00 1.0000000000e+00 -0.0000000000e+00
   outer loop
     vertex 8.0786174469e-01 5.0000000000e+00 -1.0184309475e-02
     vertex 6.6696530618e-01 5.0000000000e+00 -1.6365342370e-02
     vertex 6.6696530618e-01 5.0000000000e+00 5.6580167423e-18
   endloop
 endfacet
 facet normal  0.0000000000e+00 1.0000000000e+00 0.0000000000e+00
   outer loop
     vertex 6.6696530618e-01 5.0000000000e+00 -1.6365342370e-02
     vertex 4.9469990917e-01 5.0000000000e+00 6.9388939039e-18
     vertex 6.6696530618e-01 5.0000000000e+00 5.6580167423e-18
   endloop
 endfacet
 facet normal  0.0000000000e+00 1.0000000000e+00 -0.0000000000e+00
   outer loop
     vertex 6.6696530618e-01 5.0000000000e+00 -1.6365342370e-02
     vertex 4.9469990917e-01 5.0000000000e+00 -2.2144637336e-02
     vertex 4.9469990917e-01 5.0000000000e+00 6.9388939039e-18
   endloop
 endfacet
 facet normal  0.0000000000e+00 1.0000000000e+00 0.0000000000e+00
   outer loop
     vertex 4.9469990917e-01 5.0000000000e+00 -2.2144637336e-02
     vertex 3.2214805739e-01 5.0000000000e+00 -2.4961019322e-02
     vertex 4.9469990917e-01 5.0000000000e+00 6.9388939039e-18
   endloop
 endfacet
 facet normal  0.0000000000e+00 1.0000000000e+00 0.0000000000e+00
   outer loop
     vertex 4.9469990917e-01 5.0000000000e+00 6.9388939039e-18
     vertex 3.2214805739e-01 5.0000000000e+00 -2.4961019322e-02
     vertex 3.2214805739e-01 5.0000000000e+00 -6.7040199171e-18
   endloop
 endfacet
 facet normal  -0.0000000000e+00 1.0000000000e+00 0.0000000000e+00
   outer loop
     vertex 3.2214805739e-01 5.0000000000e+00 -2.4961019322e-02
     vertex 1.8077108286e-01 5.0000000000e+00 -2.3379146618e-02
     vertex 3.2214805739e-01 5.0000000000e+00 -6.7040199171e-18
   endloop
 endfacet
 facet normal  0.0000000000e+00 1.0000000000e+00 -0.0000000000e+00
   outer loop
     vertex 3.2214805739e-01 5.0000000000e+00 -6.7040199171e-18
     vertex 1.8077108286e-01 5.0000000000e+00 -2.3379146618e-02
     vertex 1.8077108286e-01 5.0000000000e+00 -2.1830886704e-18
   endloop
 endfacet
 facet normal  -0.0000000000e+00 1.0000000000e+00 0.0000000000e+00
   outer loop
     vertex 1.8077108286e-01 5.0000000000e+00 -2.3379146618e-02
     vertex 8.3233162389e-02 5.0000000000e+00 -1.8226416178e-02
     vertex 1.8077108286e-01 5.0000000000e+00 -2.1830886704e-18
   endloop
 endfacet
 facet normal  0.0000000000e+00 1.0000000000e+00 -0.0000000000e+00
   outer loop
     vertex 1.8077108286e-01 5.0000000000e+00 -2.1830886704e-18
     vertex 8.3233162389e-02 5.0000000000e+00 -1.8226416178e-02
     vertex 8.3233162389e-02 5.0000000000e+00 -2.0746925703e-17
   endloop
 endfacet
 facet normal  -0.0000000000e+00 1.0000000000e+00 0.0000000000e+00
   outer loop
     vertex 8.3233162389e-02 5.0000000000e+00 -1.8226416178e-02
     vertex 2.4681659684e-02 5.0000000000e+00 -1.0851119914e-02
     vertex 8.3233162389e-02 5.0000000000e+00 -2.0746925703e-17
   endloop
 endfacet
 facet normal  0.0000000000e+00 1.0000000000e+00 0.0000000000e+00
   outer loop
     vertex 8.3233162389e-02 5.0000000000e+00 -2.0746925703e-17
     vertex 2.4681659684e-02 5.0000000000e+00 -1.0851119914e-02
     vertex 2.4681659684e-02 5.0000000000e+00 1.5092488814e-17
   endloop
 endfacet
 facet normal  -0.0000000000e+00 1.0000000000e+00 0.0000000000e+00
   outer loop
     vertex 2.4681659684e-02 5.0000000000e+00 -1.0851119914e-02
     vertex 0.0000000000e+00 5.0000000000e+00 0.0000000000e+00
     vertex 2.4681659684e-02 5.0000000000e+00 1.5092488814e-17
   endloop
 endfacet
 facet normal  0.0000000000e+00 1.0000000000e+00 0.0000000000e+00
   outer loop
     vertex 0.0000000000e+00 5.0000000000e+00 0.0000000000e+00
     vertex 2.4681659684e-02 5.0000000000e+00 1.0851119914e-02
     vertex 2.4681659684e-02 5.0000000000e+00 1.5092488814e-17
   endloop
 endfacet
 facet normal  0.0000000000e+00 1.0000000000e+00 0.0000000000e+00
   outer loop
     vertex 2.4681659684e-02 5.0000000000e+00 1.0851119914e-02
     vertex 8.3233162389e-02 5.0000000000e+00 -2.0746925703e-17
     vertex 2.4681659684e-02 5.0000000000e+00 1.5092488814e-17
   endloop
 endfacet
 facet normal  0.0000000000e+00 1.0000000000e+00 0.0000000000e+00
   outer loop
     vertex 2.4681659684e-02 5.0000000000e+00 1.0851119914e-02
     vertex 8.3233162389e-02 5.0000000000e+00 1.8226416178e-02
     vertex 8.3233162389e-02 5.0000000000e+00 -2.0746925703e-17
   endloop
 endfacet
 facet normal  0.0000000000e+00 1.0000000000e+00 0.0000000000e+00
   outer loop
     vertex 8.3233162389e-02 5.0000000000e+00 1.8226416178e-02
     vertex 1.8077108286e-01 5.0000000000e+00 -2.1830886704e-18
     vertex 8.3233162389e-02 5.0000000000e+00 -2.0746925703e-17
   endloop
 endfacet
 facet normal  0.0000000000e+00 1.0000000000e+00 0.0000000000e+00
   outer loop
     vertex 8.3233162389e-02 5.0000000000e+00 1.8226416178e-02
     vertex 1.8077108286e-01 5.0000000000e+00 2.3379146618e-02
     vertex 1.8077108286e-01 5.0000000000e+00 -2.1830886704e-18
   endloop
 endfacet
 facet normal  0.0000000000e+00 1.0000000000e+00 0.0000000000e+00
   outer loop
     vertex 1.8077108286e-01 5.0000000000e+00 2.3379146618e-02
     vertex 3.2214805739e-01 5.0000000000e+00 -6.7040199171e-18
     vertex 1.8077108286e-01 5.0000000000e+00 -2.1830886704e-18
   endloop
 endfacet
 facet normal  0.0000000000e+00 1.0000000000e+00 0.0000000000e+00
   outer loop
     vertex 1.8077108286e-01 5.0000000000e+00 2.3379146618e-02
     vertex 3.2214805739e-01 5.0000000000e+00 2.4961019322e-02
     vertex 3.2214805739e-01 5.0000000000e+00 -6.7040199171e-18
   endloop
 endfacet
 facet normal  0.0000000000e+00 1.0000000000e+00 0.0000000000e+00
   outer loop
     vertex 3.2214805739e-01 5.0000000000e+00 2.4961019322e-02
     vertex 4.9469990917e-01 5.0000000000e+00 6.9388939039e-18
     vertex 3.2214805739e-01 5.0000000000e+00 -6.7040199171e-18
   endloop
 endfacet
 facet normal  0.0000000000e+00 1.0000000000e+00 0.0000000000e+00
   outer loop
     vertex 3.2214805739e-01 5.0000000000e+00 2.4961019322e-02
     vertex 4.9469990917e-01 5.0000000000e+00 2.2144637336e-02
     vertex 4.9469990917e-01 5.0000000000e+00 6.9388939039e-18
   endloop
 endfacet
 facet normal  0.0000000000e+00 1.0000000000e+00 0.0000000000e+00
   outer loop
     vertex 4.9469990917e-01 5.0000000000e+00 2.2144637336e-02
     vertex 6.6696530618e-01 5.0000000000e+00 1.6365342370e-02
     vertex 4.9469990917e-01 5.0000000000e+00 6.9388939039e-18
   endloop
 endfacet
 facet normal  0.0000000000e+00 1.0000000000e+00 0.0000000000e+00
   outer loop
     vertex 4.9469990917e-01 5.0000000000e+00 6.9388939039e-18
     vertex 6.6696530618e-01 5.0000000000e+00 1.6365342370e-02
     vertex 6.6696530618e-01 5.0000000000e+00 5.6580167423e-18
   endloop
 endfacet
 facet normal  0.0000000000e+00 1.0000000000e+00 0.0000000000e+00
   outer loop
     vertex 6.6696530618e-01 5.0000000000e+00 1.6365342370e-02
     vertex 8.0786174469e-01 5.0000000000e+00 1.0184309475e-02
     vertex 6.6696530618e-01 5.0000000000e+00 5.6580167423e-18
   endloop
 endfacet
 facet normal  0.0000000000e+00 1.0000000000e+00 0.0000000000e+00
   outer loop
     vertex 6.6696530618e-01 5.0000000000e+00 5.6580167423e-18
     vertex 8.0786174469e-01 5.0000000000e+00 1.0184309475e-02
     vertex 8.0786174469e-01 5.0000000000e+00 3.0029559672e-17
   endloop
 endfacet
 facet normal  0.0000000000e+00 1.0000000000e+00 0.0000000000e+00
   outer loop
     vertex 8.0786174469e-01 5.0000000000e+00 1.0184309475e-02
     vertex 9.0549005286e-01 5.0000000000e+00 5.2638943848e-03
     vertex 8.0786174469e-01 5.0000000000e+00 3.0029559672e-17
   endloop
 endfacet
 facet normal  0.0000000000e+00 1.0000000000e+00 0.0000000000e+00
   outer loop
     vertex 8.0786174469e-01 5.0000000000e+00 3.0029559672e-17
     vertex 9.0549005286e-01 5.0000000000e+00 5.2638943848e-03
     vertex 9.0549005286e-01 5.0000000000e+00 -3.6023677021e-17
   endloop
 endfacet
 facet normal  0.0000000000e+00 1.0000000000e+00 0.0000000000e+00
   outer loop
     vertex 9.0549005286e-01 5.0000000000e+00 5.2638943848e-03
     vertex 9.6561709246e-01 5.0000000000e+00 1.9748145261e-03
     vertex 9.0549005286e-01 5.0000000000e+00 -3.6023677021e-17
   endloop
 endfacet
 facet normal  0.0000000000e+00 1.0000000000e+00 0.0000000000e+00
   outer loop
     vertex 9.0549005286e-01 5.0000000000e+00 -3.6023677021e-17
     vertex 9.6561709246e-01 5.0000000000e+00 1.9748145261e-03
     vertex 9.6561709246e-01 5.0000000000e+00 -1.9788834051e-16
   endloop
 endfacet
 facet normal  0.0000000000e+00 1.0000000000e+00 0.0000000000e+00
   outer loop
     vertex 9.6561709246e-01 5.0000000000e+00 1.9748145261e-03
     vertex 1.0000000000e+00 5.0000000000e+00 0.0000000000e+00
     vertex 9.6561709246e-01 5.0000000000e+00 -1.9788834051e-16
   endloop
 endfacet
 facet normal  1.2537195494e-01 0.0000000000e+00 -9.9210980890e-01
   outer loop
     vertex 1.0000000000e+00 0.0000000000e+00 0.0000000000e+00
     vertex 1.0000000000e+00 -2.5000000000e+00 0.0000000000e+00
     vertex 9.6557914469e-01 -2.5000000000e+00 -4.3497301231e-03
   endloop
 endfacet
 facet normal  1.3654973688e-01 -1.5646865902e-04 -9.9063320400e-01
   outer loop
     vertex 1.0000000000e+00 0.0000000000e+00 0.0000000000e+00
     vertex 9.6557914469e-01 -2.5000000000e+00 -4.3497301231e-03
     vertex 9.6554119692e-01 0.0000000000e+00 -4.7498311941e-03
   endloop
 endfacet
 facet normal  1.1948599528e-01 -1.5708018762e-04 -9.9283587378e-01
   outer loop
     vertex 9.6554119692e-01 0.0000000000e+00 -4.7498311941e-03
     vertex 9.6557914469e-01 -2.5000000000e+00 -4.3497301231e-03
     vertex 9.0537781108e-01 -2.5000000000e+00 -1.1594851349e-02
   endloop
 endfacet
 facet normal  1.3014855540e-01 -4.1735139402e-04 -9.9149441720e-01
   outer loop
     vertex 9.6554119692e-01 0.0000000000e+00 -4.7498311941e-03
     vertex 9.0537781108e-01 -2.5000000000e+00 -1.1594851349e-02
     vertex 9.0526556930e-01 0.0000000000e+00 -1.2661913928e-02
   endloop
 endfacet
 facet normal  1.1019457059e-01 -4.1927827048e-04 -9.9390994603e-01
   outer loop
     vertex 9.0526556930e-01 0.0000000000e+00 -1.2661913928e-02
     vertex 9.0537781108e-01 -2.5000000000e+00 -1.1594851349e-02
     vertex 8.0760981306e-01 -2.5000000000e+00 -2.2434367145e-02
   endloop
 endfacet
 facet normal  1.2003755677e-01 -8.0822782330e-04 -9.9276902235e-01
   outer loop
     vertex 9.0526556930e-01 0.0000000000e+00 -1.2661913928e-02
     vertex 8.0760981306e-01 -2.5000000000e+00 -2.2434367145e-02
     vertex 8.0735788143e-01 0.0000000000e+00 -2.4500115339e-02
   endloop
 endfacet
 facet normal  9.6026215498e-02 -8.1280369733e-04 -9.9537847339e-01
   outer loop
     vertex 8.0735788143e-01 0.0000000000e+00 -2.4500115339e-02
     vertex 8.0760981306e-01 -2.5000000000e+00 -2.2434367145e-02
     vertex 6.6647411774e-01 -2.5000000000e+00 -3.6050018935e-02
   endloop
 endfacet
 facet normal  1.0459886727e-01 -1.2998981561e-03 -9.9451364356e-01
   outer loop
     vertex 8.0735788143e-01 0.0000000000e+00 -2.4500115339e-02
     vertex 6.6647411774e-01 -2.5000000000e+00 -3.6050018935e-02
     vertex 6.6598292929e-01 0.0000000000e+00 -3.9369353131e-02
   endloop
 endfacet
 facet normal  7.3498301291e-02 -1.3097008648e-03 -9.9729448228e-01
   outer loop
     vertex 6.6598292929e-01 0.0000000000e+00 -3.9369353131e-02
     vertex 6.6647411774e-01 -2.5000000000e+00 -3.6050018935e-02
     vertex 4.9385625768e-01 -2.5000000000e+00 -4.8771556768e-02
   endloop
 endfacet
 facet normal  8.0013422410e-02 -1.7601602134e-03 -9.9679223215e-01
   outer loop
     vertex 6.6598292929e-01 0.0000000000e+00 -3.9369353131e-02
     vertex 4.9385625768e-01 -2.5000000000e+00 -4.8771556768e-02
     vertex 4.9301260620e-01 0.0000000000e+00 -5.3253838864e-02
   endloop
 endfacet
 facet normal  3.8480284442e-02 -1.7785965173e-03 -9.9925777670e-01
   outer loop
     vertex 4.9301260620e-01 0.0000000000e+00 -5.3253838864e-02
     vertex 4.9385625768e-01 -2.5000000000e+00 -4.8771556768e-02
     vertex 3.1962774258e-01 0.0000000000e+00 -5.9930693451e-02
   endloop
 endfacet
 facet normal  3.5560864533e-02 -1.9825360403e-03 -9.9936554597e-01
   outer loop
     vertex 4.9385625768e-01 -2.5000000000e+00 -4.8771556768e-02
     vertex 3.2088789998e-01 -2.5000000000e+00 -5.4926366048e-02
     vertex 3.1962774258e-01 0.0000000000e+00 -5.9930693451e-02
   endloop
 endfacet
 facet normal  -2.8559666530e-02 -2.0153062377e-03 -9.9959005797e-01
   outer loop
     vertex 3.1962774258e-01 0.0000000000e+00 -5.9930693451e-02
     vertex 3.2088789998e-01 -2.5000000000e+00 -5.4926366048e-02
     vertex 1.7756917577e-01 0.0000000000e+00 -5.5871884279e-02
   endloop
 endfacet
 facet normal  -2.5473864484e-02 -1.8384366239e-03 -9.9967379799e-01
   outer loop
     vertex 3.2088789998e-01 -2.5000000000e+00 -5.4926366048e-02
     vertex 1.7917012932e-01 -2.5000000000e+00 -5.1315088757e-02
     vertex 1.7756917577e-01 0.0000000000e+00 -5.5871884279e-02
   endloop
 endfacet
 facet normal  -1.3008085085e-01 -1.8905293574e-03 -9.9150158756e-01
   outer loop
     vertex 1.7756917577e-01 0.0000000000e+00 -5.5871884279e-02
     vertex 1.7917012932e-01 -2.5000000000e+00 -5.1315088757e-02
     vertex 7.9850613208e-02 0.0000000000e+00 -4.3051618612e-02
   endloop
 endfacet
 facet normal  -1.1761552196e-01 -1.3901638628e-03 -9.9305823416e-01
   outer loop
     vertex 1.7917012932e-01 -2.5000000000e+00 -5.1315088757e-02
     vertex 8.1541887799e-02 -2.5000000000e+00 -3.9752225484e-02
     vertex 7.9850613208e-02 0.0000000000e+00 -4.3051618612e-02
   endloop
 endfacet
 facet normal  -3.0208424453e-01 -1.4624613018e-03 -9.5328011120e-01
   outer loop
     vertex 7.9850613208e-02 0.0000000000e+00 -4.3051618612e-02
     vertex 8.1541887799e-02 -2.5000000000e+00 -3.9752225484e-02
     vertex 2.2056384418e-02 0.0000000000e+00 -2.4737247277e-02
   endloop
 endfacet
 facet normal  -2.7337034369e-01 -7.2741442461e-04 -9.6190858508e-01
   outer loop
     vertex 8.1541887799e-02 -2.5000000000e+00 -3.9752225484e-02
     vertex 2.3369022051e-02 -2.5000000000e+00 -2.3219743552e-02
     vertex 2.2056384418e-02 0.0000000000e+00 -2.4737247277e-02
   endloop
 endfacet
 facet normal  -7.4639360051e-01 -7.9585982697e-04 -6.6550428978e-01
   outer loop
     vertex 2.2056384418e-02 0.0000000000e+00 -2.4737247277e-02
     vertex 2.3369022051e-02 -2.5000000000e+00 -2.3219743552e-02
     vertex 0.0000000000e+00 0.0000000000e+00 0.0000000000e+00
   endloop
 endfacet
 facet normal  -7.0483747004e-01 0.0000000000e+00 -7.0936883272e-01
   outer loop
     vertex 2.3369022051e-02 -2.5000000000e+00 -2.3219743552e-02
     vertex 0.0000000000e+00 -2.5000000000e+00 0.0000000000e+00
     vertex 0.0000000000e+00 0.0000000000e+00 0.0000000000e+00
   endloop
 endfacet
 facet normal  -7.0483747004e-01 0.0000000000e+00 7.0936883272e-01
   outer loop
     vertex 0.0000000000e+00 0.0000000000e+00 0.0000000000e+00
     vertex 0.0000000000e+00 -2.5000000000e+00 0.0000000000e+00
     vertex 2.3369022051e-02 -2.5000000000e+00 2.3219743552e-02
   endloop
 endfacet
 facet normal  -7.4639360051e-01 -7.9585982697e-04 6.6550428978e-01
   outer loop
     vertex 0.0000000000e+00 0.0000000000e+00 0.0000000000e+00
     vertex 2.3369022051e-02 -2.5000000000e+00 2.3219743552e-02
     vertex 2.2056384418e-02 0.0000000000e+00 2.4737247277e-02
   endloop
 endfacet
 facet normal  -2.7337034369e-01 -7.2741442461e-04 9.6190858508e-01
   outer loop
     vertex 2.2056384418e-02 0.0000000000e+00 2.4737247277e-02
     vertex 2.3369022051e-02 -2.5000000000e+00 2.3219743552e-02
     vertex 8.1541887799e-02 -2.5000000000e+00 3.9752225484e-02
   endloop
 endfacet
 facet normal  -3.0208424453e-01 -1.4624613018e-03 9.5328011120e-01
   outer loop
     vertex 2.2056384418e-02 0.0000000000e+00 2.4737247277e-02
     vertex 8.1541887799e-02 -2.5000000000e+00 3.9752225484e-02
     vertex 7.9850613208e-02 0.0000000000e+00 4.3051618612e-02
   endloop
 endfacet
 facet normal  -1.1761552196e-01 -1.3901638628e-03 9.9305823416e-01
   outer loop
     vertex 7.9850613208e-02 0.0000000000e+00 4.3051618612e-02
     vertex 8.1541887799e-02 -2.5000000000e+00 3.9752225484e-02
     vertex 1.7917012932e-01 -2.5000000000e+00 5.1315088757e-02
   endloop
 endfacet
 facet normal  -1.3008085085e-01 -1.8905293574e-03 9.9150158756e-01
   outer loop
     vertex 7.9850613208e-02 0.0000000000e+00 4.3051618612e-02
     vertex 1.7917012932e-01 -2.5000000000e+00 5.1315088757e-02
     vertex 1.7756917577e-01 0.0000000000e+00 5.5871884279e-02
   endloop
 endfacet
 facet normal  -2.5473864484e-02 -1.8384366239e-03 9.9967379799e-01
   outer loop
     vertex 1.7756917577e-01 0.0000000000e+00 5.5871884279e-02
     vertex 1.7917012932e-01 -2.5000000000e+00 5.1315088757e-02
     vertex 3.2088789998e-01 -2.5000000000e+00 5.4926366048e-02
   endloop
 endfacet
 facet normal  -2.8559666530e-02 -2.0153062377e-03 9.9959005797e-01
   outer loop
     vertex 1.7756917577e-01 0.0000000000e+00 5.5871884279e-02
     vertex 3.2088789998e-01 -2.5000000000e+00 5.4926366048e-02
     vertex 3.1962774258e-01 0.0000000000e+00 5.9930693451e-02
   endloop
 endfacet
 facet normal  3.5560864533e-02 -1.9825360403e-03 9.9936554597e-01
   outer loop
     vertex 3.1962774258e-01 0.0000000000e+00 5.9930693451e-02
     vertex 3.2088789998e-01 -2.5000000000e+00 5.4926366048e-02
     vertex 4.9385625768e-01 -2.5000000000e+00 4.8771556768e-02
   endloop
 endfacet
 facet normal  3.8480284442e-02 -1.7785965173e-03 9.9925777670e-01
   outer loop
     vertex 3.1962774258e-01 0.0000000000e+00 5.9930693451e-02
     vertex 4.9385625768e-01 -2.5000000000e+00 4.8771556768e-02
     vertex 4.9301260620e-01 0.0000000000e+00 5.3253838864e-02
   endloop
 endfacet
 facet normal  8.0013422410e-02 -1.7601602134e-03 9.9679223215e-01
   outer loop
     vertex 4.9301260620e-01 0.0000000000e+00 5.3253838864e-02
     vertex 4.9385625768e-01 -2.5000000000e+00 4.8771556768e-02
     vertex 6.6598292929e-01 0.0000000000e+00 3.9369353131e-02
   endloop
 endfacet
 facet normal  7.3498301291e-02 -1.3097008648e-03 9.9729448228e-01
   outer loop
     vertex 4.9385625768e-01 -2.5000000000e+00 4.8771556768e-02
     vertex 6.6647411774e-01 -2.5000000000e+00 3.6050018935e-02
     vertex 6.6598292929e-01 0.0000000000e+00 3.9369353131e-02
   endloop
 endfacet
 facet normal  1.0459886727e-01 -1.2998981561e-03 9.9451364356e-01
   outer loop
     vertex 6.6598292929e-01 0.0000000000e+00 3.9369353131e-02
     vertex 6.6647411774e-01 -2.5000000000e+00 3.6050018935e-02
     vertex 8.0735788143e-01 0.0000000000e+00 2.4500115339e-02
   endloop
 endfacet
 facet normal  9.6026215498e-02 -8.1280369733e-04 9.9537847339e-01
   outer loop
     vertex 6.6647411774e-01 -2.5000000000e+00 3.6050018935e-02
     vertex 8.0760981306e-01 -2.5000000000e+00 2.2434367145e-02
     vertex 8.0735788143e-01 0.0000000000e+00 2.4500115339e-02
   endloop
 endfacet
 facet normal  1.2003755677e-01 -8.0822782330e-04 9.9276902235e-01
   outer loop
     vertex 8.0735788143e-01 0.0000000000e+00 2.4500115339e-02
     vertex 8.0760981306e-01 -2.5000000000e+00 2.2434367145e-02
     vertex 9.0526556930e-01 0.0000000000e+00 1.2661913928e-02
   endloop
 endfacet
 facet normal  1.1019457059e-01 -4.1927827048e-04 9.9390994603e-01
   outer loop
     vertex 8.0760981306e-01 -2.5000000000e+00 2.2434367145e-02
     vertex 9.0537781108e-01 -2.5000000000e+00 1.1594851349e-02
     vertex 9.0526556930e-01 0.0000000000e+00 1.2661913928e-02
   endloop
 endfacet
 facet normal  1.3014855540e-01 -4.1735139402e-04 9.9149441720e-01
   outer loop
     vertex 9.0526556930e-01 0.0000000000e+00 1.2661913928e-02
     vertex 9.0537781108e-01 -2.5000000000e+00 1.1594851349e-02
     vertex 9.6554119692e-01 0.0000000000e+00 4.7498311941e-03
   endloop
 endfacet
 facet normal  1.1948599528e-01 -1.5708018762e-04 9.9283587378e-01
   outer loop
     vertex 9.0537781108e-01 -2.5000000000e+00 1.1594851349e-02
     vertex 9.6557914469e-01 -2.5000000000e+00 4.3497301231e-03
     vertex 9.6554119692e-01 0.0000000000e+00 4.7498311941e-03
   endloop
 endfacet
 facet normal  1.3654973688e-01 -1.5646865902e-04 9.9063320400e-01
   outer loop
     vertex 9.6554119692e-01 0.0000000000e+00 4.7498311941e-03
     vertex 9.6557914469e-01 -2.5000000000e+00 4.3497301231e-03
     vertex 1.0000000000e+00 0.0000000000e+00 0.0000000000e+00
   endloop
 endfacet
 facet normal  1.2537195494e-01 -0.0000000000e+00 9.9210980890e-01
   outer loop
     vertex 9.6557914469e-01 -2.5000000000e+00 4.3497301231e-03
     vertex 1.0000000000e+00 -2.5000000000e+00 0.0000000000e+00
     vertex 1.0000000000e+00 0.0000000000e+00 0.0000000000e+00
   endloop
 endfacet
 facet normal  1.1412139534e-01 0.0000000000e+00 -9.9346681229e-01
   outer loop
     vertex 1.0000000000e+00 -2.5000000000e+00 0.0000000000e+00
     vertex 1.0000000000e+00 -5.0000000000e+00 0.0000000000e+00
     vertex 9.6561709246e-01 -5.0000000000e+00 -3.9496290522e-03
   endloop
 endfacet
 facet normal  1.2537195340e-01 -1.5687464233e-04 -9.9210979669e-01
   outer loop
     vertex 1.0000000000e+00 -2.5000000000e+00 0.0000000000e+00
     vertex 9.6561709246e-01 -5.0000000000e+00 -3.9496290522e-03
     vertex 9.6557914469e-01 -2.5000000000e+00 -4.3497301231e-03
   endloop
 endfacet
 facet normal  1.0875542143e-01 -1.5744034229e-04 -9.9406852557e-01
   outer loop
     vertex 9.6557914469e-01 -2.5000000000e+00 -4.3497301231e-03
     vertex 9.6561709246e-01 -5.0000000000e+00 -3.9496290522e-03
     vertex 9.0549005286e-01 -5.0000000000e+00 -1.0527788770e-02
   endloop
 endfacet
 facet normal  1.1948598629e-01 -4.1840264368e-04 -9.9283579912e-01
   outer loop
     vertex 9.6557914469e-01 -2.5000000000e+00 -4.3497301231e-03
     vertex 9.0549005286e-01 -5.0000000000e+00 -1.0527788770e-02
     vertex 9.0537781108e-01 -2.5000000000e+00 -1.1594851349e-02
   endloop
 endfacet
 facet normal  1.0029072256e-01 -4.2017029339e-04 -9.9495808677e-01
   outer loop
     vertex 9.0537781108e-01 -2.5000000000e+00 -1.1594851349e-02
     vertex 9.0549005286e-01 -5.0000000000e+00 -1.0527788770e-02
     vertex 8.0786174469e-01 -5.0000000000e+00 -2.0368618951e-02
   endloop
 endfacet
 facet normal  1.1019454411e-01 -8.1016227686e-04 -9.9390970721e-01
   outer loop
     vertex 9.0537781108e-01 -2.5000000000e+00 -1.1594851349e-02
     vertex 8.0786174469e-01 -5.0000000000e+00 -2.0368618951e-02
     vertex 8.0760981306e-01 -2.5000000000e+00 -2.2434367145e-02
   endloop
 endfacet
 facet normal  8.7402866646e-02 -8.1432897535e-04 -9.9617271383e-01
   outer loop
     vertex 8.0760981306e-01 -2.5000000000e+00 -2.2434367145e-02
     vertex 8.0786174469e-01 -5.0000000000e+00 -2.0368618951e-02
     vertex 6.6696530618e-01 -5.0000000000e+00 -3.2730684740e-02
   endloop
 endfacet
 facet normal  9.6026165734e-02 -1.3027300597e-03 -9.9537795756e-01
   outer loop
     vertex 8.0760981306e-01 -2.5000000000e+00 -2.2434367145e-02
     vertex 6.6696530618e-01 -5.0000000000e+00 -3.2730684740e-02
     vertex 6.6647411774e-01 -2.5000000000e+00 -3.6050018935e-02
   endloop
 endfacet
 facet normal  6.6946983349e-02 -1.3116003747e-03 -9.9775567206e-01
   outer loop
     vertex 6.6647411774e-01 -2.5000000000e+00 -3.6050018935e-02
     vertex 6.6696530618e-01 -5.0000000000e+00 -3.2730684740e-02
     vertex 4.9469990917e-01 -5.0000000000e+00 -4.4289274671e-02
   endloop
 endfacet
 facet normal  7.3498250072e-02 -1.7632580719e-03 -9.9729378729e-01
   outer loop
     vertex 6.6647411774e-01 -2.5000000000e+00 -3.6050018935e-02
     vertex 4.9469990917e-01 -5.0000000000e+00 -4.4289274671e-02
     vertex 4.9385625768e-01 -2.5000000000e+00 -4.8771556768e-02
   endloop
 endfacet
 facet normal  3.5560878097e-02 -1.7797756062e-03 -9.9936592715e-01
   outer loop
     vertex 4.9385625768e-01 -2.5000000000e+00 -4.8771556768e-02
     vertex 4.9469990917e-01 -5.0000000000e+00 -4.4289274671e-02
     vertex 3.2088789998e-01 -2.5000000000e+00 -5.4926366048e-02
   endloop
 endfacet
 facet normal  3.2626448375e-02 -1.9842155443e-03 -9.9946564611e-01
   outer loop
     vertex 4.9469990917e-01 -5.0000000000e+00 -4.4289274671e-02
     vertex 3.2214805739e-01 -5.0000000000e+00 -4.9922038645e-02
     vertex 3.2088789998e-01 -2.5000000000e+00 -5.4926366048e-02
   endloop
 endfacet
 facet normal  -2.5473855874e-02 -2.0139177435e-03 -9.9967346009e-01
   outer loop
     vertex 3.2088789998e-01 -2.5000000000e+00 -5.4926366048e-02
     vertex 3.2214805739e-01 -5.0000000000e+00 -4.9922038645e-02
     vertex 1.7917012932e-01 -2.5000000000e+00 -5.1315088757e-02
   endloop
 endfacet
 facet normal  -2.2372442297e-02 -1.8365858141e-03 -9.9974801864e-01
   outer loop
     vertex 3.2214805739e-01 -5.0000000000e+00 -4.9922038645e-02
     vertex 1.8077108286e-01 -5.0000000000e+00 -4.6758293235e-02
     vertex 1.7917012932e-01 -2.5000000000e+00 -5.1315088757e-02
   endloop
 endfacet
 facet normal  -1.1761542656e-01 -1.8853825914e-03 -9.9305742874e-01
   outer loop
     vertex 1.7917012932e-01 -2.5000000000e+00 -5.1315088757e-02
     vertex 1.8077108286e-01 -5.0000000000e+00 -4.6758293235e-02
     vertex 8.1541887799e-02 -2.5000000000e+00 -3.9752225484e-02
   endloop
 endfacet
 facet normal  -1.0507100544e-01 -1.3835323267e-03 -9.9446375985e-01
   outer loop
     vertex 1.8077108286e-01 -5.0000000000e+00 -4.6758293235e-02
     vertex 8.3233162389e-02 -5.0000000000e+00 -3.6452832356e-02
     vertex 8.1541887799e-02 -2.5000000000e+00 -3.9752225484e-02
   endloop
 endfacet
 facet normal  -2.7337012688e-01 -1.4544224030e-03 -9.6190782219e-01
   outer loop
     vertex 8.1541887799e-02 -2.5000000000e+00 -3.9752225484e-02
     vertex 8.3233162389e-02 -5.0000000000e+00 -3.6452832356e-02
     vertex 2.3369022051e-02 -2.5000000000e+00 -2.3219743552e-02
   endloop
 endfacet
 facet normal  -2.4429211700e-01 -7.1687701832e-04 -9.6970142191e-01
   outer loop
     vertex 8.3233162389e-02 -5.0000000000e+00 -3.6452832356e-02
     vertex 2.4681659684e-02 -5.0000000000e+00 -2.1702239828e-02
     vertex 2.3369022051e-02 -2.5000000000e+00 -2.3219743552e-02
   endloop
 endfacet
 facet normal  -7.0483724411e-01 -8.0066615695e-04 -7.0936860534e-01
   outer loop
     vertex 2.3369022051e-02 -2.5000000000e+00 -2.3219743552e-02
     vertex 2.4681659684e-02 -5.0000000000e+00 -2.1702239828e-02
     vertex 0.0000000000e+00 -2.5000000000e+00 0.0000000000e+00
   endloop
 endfacet
 facet normal  -6.6032568963e-01 0.0000000000e+00 -7.5097934966e-01
   outer loop
     vertex 2.4681659684e-02 -5.0000000000e+00 -2.1702239828e-02
     vertex 0.0000000000e+00 -5.0000000000e+00 0.0000000000e+00
     vertex 0.0000000000e+00 -2.5000000000e+00 0.0000000000e+00
   endloop
 endfacet
 facet normal  -6.6032568963e-01 0.0000000000e+00 7.5097934966e-01
   outer loop
     vertex 0.0000000000e+00 -2.5000000000e+00 0.0000000000e+00
     vertex 0.0000000000e+00 -5.0000000000e+00 0.0000000000e+00
     vertex 2.4681659684e-02 -5.0000000000e+00 2.1702239828e-02
   endloop
 endfacet
 facet normal  -7.0483724411e-01 -8.0066615695e-04 7.0936860534e-01
   outer loop
     vertex 0.0000000000e+00 -2.5000000000e+00 0.0000000000e+00
     vertex 2.4681659684e-02 -5.0000000000e+00 2.1702239828e-02
     vertex 2.3369022051e-02 -2.5000000000e+00 2.3219743552e-02
   endloop
 endfacet
 facet normal  -2.4429211700e-01 -7.1687701832e-04 9.6970142191e-01
   outer loop
     vertex 2.3369022051e-02 -2.5000000000e+00 2.3219743552e-02
     vertex 2.4681659684e-02 -5.0000000000e+00 2.1702239828e-02
     vertex 8.3233162389e-02 -5.0000000000e+00 3.6452832356e-02
   endloop
 endfacet
 facet normal  -2.7337012688e-01 -1.4544224030e-03 9.6190782219e-01
   outer loop
     vertex 2.3369022051e-02 -2.5000000000e+00 2.3219743552e-02
     vertex 8.3233162389e-02 -5.0000000000e+00 3.6452832356e-02
     vertex 8.1541887799e-02 -2.5000000000e+00 3.9752225484e-02
   endloop
 endfacet
 facet normal  -1.0507100544e-01 -1.3835323267e-03 9.9446375985e-01
   outer loop
     vertex 8.1541887799e-02 -2.5000000000e+00 3.9752225484e-02
     vertex 8.3233162389e-02 -5.0000000000e+00 3.6452832356e-02
     vertex 1.8077108286e-01 -5.0000000000e+00 4.6758293235e-02
   endloop
 endfacet
 facet normal  -1.1761542656e-01 -1.8853825914e-03 9.9305742874e-01
   outer loop
     vertex 8.1541887799e-02 -2.5000000000e+00 3.9752225484e-02
     vertex 1.8077108286e-01 -5.0000000000e+00 4.6758293235e-02
     vertex 1.7917012932e-01 -2.5000000000e+00 5.1315088757e-02
   endloop
 endfacet
 facet normal  -2.2372442297e-02 -1.8365858141e-03 9.9974801864e-01
   outer loop
     vertex 1.7917012932e-01 -2.5000000000e+00 5.1315088757e-02
     vertex 1.8077108286e-01 -5.0000000000e+00 4.6758293235e-02
     vertex 3.2214805739e-01 -5.0000000000e+00 4.9922038645e-02
   endloop
 endfacet
 facet normal  -2.5473855874e-02 -2.0139177435e-03 9.9967346009e-01
   outer loop
     vertex 1.7917012932e-01 -2.5000000000e+00 5.1315088757e-02
     vertex 3.2214805739e-01 -5.0000000000e+00 4.9922038645e-02
     vertex 3.2088789998e-01 -2.5000000000e+00 5.4926366048e-02
   endloop
 endfacet
 facet normal  3.2626448375e-02 -1.9842155443e-03 9.9946564611e-01
   outer loop
     vertex 3.2088789998e-01 -2.5000000000e+00 5.4926366048e-02
     vertex 3.2214805739e-01 -5.0000000000e+00 4.9922038645e-02
     vertex 4.9469990917e-01 -5.0000000000e+00 4.4289274671e-02
   endloop
 endfacet
 facet normal  3.5560878097e-02 -1.7797756062e-03 9.9936592715e-01
   outer loop
     vertex 3.2088789998e-01 -2.5000000000e+00 5.4926366048e-02
     vertex 4.9469990917e-01 -5.0000000000e+00 4.4289274671e-02
     vertex 4.9385625768e-01 -2.5000000000e+00 4.8771556768e-02
   endloop
 endfacet
 facet normal  7.3498250072e-02 -1.7632580719e-03 9.9729378729e-01
   outer loop
     vertex 4.9385625768e-01 -2.5000000000e+00 4.8771556768e-02
     vertex 4.9469990917e-01 -5.0000000000e+00 4.4289274671e-02
     vertex 6.6647411774e-01 -2.5000000000e+00 3.6050018935e-02
   endloop
 endfacet
 facet normal  6.6946983349e-02 -1.3116003747e-03 9.9775567206e-01
   outer loop
     vertex 4.9469990917e-01 -5.0000000000e+00 4.4289274671e-02
     vertex 6.6696530618e-01 -5.0000000000e+00 3.2730684740e-02
     vertex 6.6647411774e-01 -2.5000000000e+00 3.6050018935e-02
   endloop
 endfacet
 facet normal  9.6026165734e-02 -1.3027300597e-03 9.9537795756e-01
   outer loop
     vertex 6.6647411774e-01 -2.5000000000e+00 3.6050018935e-02
     vertex 6.6696530618e-01 -5.0000000000e+00 3.2730684740e-02
     vertex 8.0760981306e-01 -2.5000000000e+00 2.2434367145e-02
   endloop
 endfacet
 facet normal  8.7402866646e-02 -8.1432897535e-04 9.9617271383e-01
   outer loop
     vertex 6.6696530618e-01 -5.0000000000e+00 3.2730684740e-02
     vertex 8.0786174469e-01 -5.0000000000e+00 2.0368618951e-02
     vertex 8.0760981306e-01 -2.5000000000e+00 2.2434367145e-02
   endloop
 endfacet
 facet normal  1.1019454411e-01 -8.1016227686e-04 9.9390970721e-01
   outer loop
     vertex 8.0760981306e-01 -2.5000000000e+00 2.2434367145e-02
     vertex 8.0786174469e-01 -5.0000000000e+00 2.0368618951e-02
     vertex 9.0537781108e-01 -2.5000000000e+00 1.1594851349e-02
   endloop
 endfacet
 facet normal  1.0029072256e-01 -4.2017029339e-04 9.9495808677e-01
   outer loop
     vertex 8.0786174469e-01 -5.0000000000e+00 2.0368618951e-02
     vertex 9.0549005286e-01 -5.0000000000e+00 1.0527788770e-02
     vertex 9.0537781108e-01 -2.5000000000e+00 1.1594851349e-02
   endloop
 endfacet
 facet normal  1.1948598629e-01 -4.1840264368e-04 9.9283579912e-01
   outer loop
     vertex 9.0537781108e-01 -2.5000000000e+00 1.1594851349e-02
     vertex 9.0549005286e-01 -5.0000000000e+00 1.0527788770e-02
     vertex 9.6557914469e-01 -2.5000000000e+00 4.3497301231e-03
   endloop
 endfacet
 facet normal  1.0875542143e-01 -1.5744034229e-04 9.9406852557e-01
   outer loop
     vertex 9.0549005286e-01 -5.0000000000e+00 1.0527788770e-02
     vertex 9.6561709246e-01 -5.0000000000e+00 3.9496290522e-03
     vertex 9.6557914469e-01 -2.5000000000e+00 4.3497301231e-03
   endloop
 endfacet
 facet normal  1.2537195340e-01 -1.5687464233e-04 9.9210979669e-01
   outer loop
     vertex 9.6557914469e-01 -2.5000000000e+00 4.3497301231e-03
     vertex 9.6561709246e-01 -5.0000000000e+00 3.9496290522e-03
     vertex 1.0000000000e+00 -2.5000000000e+00 0.0000000000e+00
   endloop
 endfacet
 facet normal  1.1412139534e-01 -0.0000000000e+00 9.9346681229e-01
   outer loop
     vertex 9.6561709246e-01 -5.0000000000e+00 3.9496290522e-03
     vertex 1.0000000000e+00 -5.0000000000e+00 0.0000000000e+00
     vertex 1.0000000000e+00 -2.5000000000e+00 0.0000000000e+00
   endloop
 endfacet
 facet normal  0.0000000000e+00 -1.0000000000e+00 -0.0000000000e+00
   outer loop
     vertex 1.0000000000e+00 -5.0000000000e+00 0.0000000000e+00
     vertex 9.6561709246e-01 -5.0000000000e+00 -1.9748145261e-03
     vertex 9.6561709246e-01 -5.0000000000e+00 -3.9496290522e-03
   endloop
 endfacet
 facet normal  0.0000000000e+00 -1.0000000000e+00 0.0000000000e+00
   outer loop
     vertex 9.6561709246e-01 -5.0000000000e+00 -3.9496290522e-03
     vertex 9.6561709246e-01 -5.0000000000e+00 -1.9748145261e-03
     vertex 9.0549005286e-01 -5.0000000000e+00 -5.2638943848e-03
   endloop
 endfacet
 facet normal  0.0000000000e+00 -1.0000000000e+00 0.0000000000e+00
   outer loop
     vertex 9.6561709246e-01 -5.0000000000e+00 -3.9496290522e-03
     vertex 9.0549005286e-01 -5.0000000000e+00 -5.2638943848e-03
     vertex 9.0549005286e-01 -5.0000000000e+00 -1.0527788770e-02
   endloop
 endfacet
 facet normal  0.0000000000e+00 -1.0000000000e+00 -0.0000000000e+00
   outer loop
     vertex 9.0549005286e-01 -5.0000000000e+00 -1.0527788770e-02
     vertex 9.0549005286e-01 -5.0000000000e+00 -5.2638943848e-03
     vertex 8.0786174469e-01 -5.0000000000e+00 -1.0184309475e-02
   endloop
 endfacet
 facet normal  0.0000000000e+00 -1.0000000000e+00 0.0000000000e+00
   outer loop
     vertex 9.0549005286e-01 -5.0000000000e+00 -1.0527788770e-02
     vertex 8.0786174469e-01 -5.0000000000e+00 -1.0184309475e-02
     vertex 8.0786174469e-01 -5.0000000000e+00 -2.0368618951e-02
   endloop
 endfacet
 facet normal  0.0000000000e+00 -1.0000000000e+00 -0.0000000000e+00
   outer loop
     vertex 8.0786174469e-01 -5.0000000000e+00 -2.0368618951e-02
     vertex 8.0786174469e-01 -5.0000000000e+00 -1.0184309475e-02
     vertex 6.6696530618e-01 -5.0000000000e+00 -1.6365342370e-02
   endloop
 endfacet
 facet normal  0.0000000000e+00 -1.0000000000e+00 0.0000000000e+00
   outer loop
     vertex 8.0786174469e-01 -5.0000000000e+00 -2.0368618951e-02
     vertex 6.6696530618e-01 -5.0000000000e+00 -1.6365342370e-02
     vertex 6.6696530618e-01 -5.0000000000e+00 -3.2730684740e-02
   endloop
 endfacet
 facet normal  0.0000000000e+00 -1.0000000000e+00 -0.0000000000e+00
   outer loop
     vertex 6.6696530618e-01 -5.0000000000e+00 -3.2730684740e-02
     vertex 6.6696530618e-01 -5.0000000000e+00 -1.6365342370e-02
     vertex 4.9469990917e-01 -5.0000000000e+00 -2.2144637336e-02
   endloop
 endfacet
 facet normal  0.0000000000e+00 -1.0000000000e+00 0.0000000000e+00
   outer loop
     vertex 6.6696530618e-01 -5.0000000000e+00 -3.2730684740e-02
     vertex 4.9469990917e-01 -5.0000000000e+00 -2.2144637336e-02
     vertex 4.9469990917e-01 -5.0000000000e+00 -4.4289274671e-02
   endloop
 endfacet
 facet normal  0.0000000000e+00 -1.0000000000e+00 -0.0000000000e+00
   outer loop
     vertex 4.9469990917e-01 -5.0000000000e+00 -4.4289274671e-02
     vertex 4.9469990917e-01 -5.0000000000e+00 -2.2144637336e-02
     vertex 3.2214805739e-01 -5.0000000000e+00 -4.9922038645e-02
   endloop
 endfacet
 facet normal  0.0000000000e+00 -1.0000000000e+00 -0.0000000000e+00
   outer loop
     vertex 4.9469990917e-01 -5.0000000000e+00 -2.2144637336e-02
     vertex 3.2214805739e-01 -5.0000000000e+00 -2.4961019322e-02
     vertex 3.2214805739e-01 -5.0000000000e+00 -4.9922038645e-02
   endloop
 endfacet
 facet normal  0.0000000000e+00 -1.0000000000e+00 0.0000000000e+00
   outer loop
     vertex 3.2214805739e-01 -5.0000000000e+00 -4.9922038645e-02
     vertex 3.2214805739e-01 -5.0000000000e+00 -2.4961019322e-02
     vertex 1.8077108286e-01 -5.0000000000e+00 -4.6758293235e-02
   endloop
 endfacet
 facet normal  0.0000000000e+00 -1.0000000000e+00 0.0000000000e+00
   outer loop
     vertex 3.2214805739e-01 -5.0000000000e+00 -2.4961019322e-02
     vertex 1.8077108286e-01 -5.0000000000e+00 -2.3379146618e-02
     vertex 1.8077108286e-01 -5.0000000000e+00 -4.6758293235e-02
   endloop
 endfacet
 facet normal  0.0000000000e+00 -1.0000000000e+00 -0.0000000000e+00
   outer loop
     vertex 1.8077108286e-01 -5.0000000000e+00 -4.6758293235e-02
     vertex 1.8077108286e-01 -5.0000000000e+00 -2.3379146618e-02
     vertex 8.3233162389e-02 -5.0000000000e+00 -3.6452832356e-02
   endloop
 endfacet
 facet normal  0.0000000000e+00 -1.0000000000e+00 0.0000000000e+00
   outer loop
     vertex 1.8077108286e-01 -5.0000000000e+00 -2.3379146618e-02
     vertex 8.3233162389e-02 -5.0000000000e+00 -1.8226416178e-02
     vertex 8.3233162389e-02 -5.0000000000e+00 -3.6452832356e-02
   endloop
 endfacet
 facet normal  0.0000000000e+00 -1.0000000000e+00 -0.0000000000e+00
   outer loop
     vertex 8.3233162389e-02 -5.0000000000e+00 -3.6452832356e-02
     vertex 8.3233162389e-02 -5.0000000000e+00 -1.8226416178e-02
     vertex 2.4681659684e-02 -5.0000000000e+00 -2.1702239828e-02
   endloop
 endfacet
 facet normal  0.0000000000e+00 -1.0000000000e+00 -0.0000000000e+00
   outer loop
     vertex 8.3233162389e-02 -5.0000000000e+00 -1.8226416178e-02
     vertex 2.4681659684e-02 -5.0000000000e+00 -1.0851119914e-02
     vertex 2.4681659684e-02 -5.0000000000e+00 -2.1702239828e-02
   endloop
 endfacet
 facet normal  -0.0000000000e+00 -1.0000000000e+00 0.0000000000e+00
   outer loop
     vertex 2.4681659684e-02 -5.0000000000e+00 -2.1702239828e-02
     vertex 2.4681659684e-02 -5.0000000000e+00 -1.0851119914e-02
     vertex 0.0000000000e+00 -5.0000000000e+00 0.0000000000e+00
   endloop
 endfacet
 facet normal  -0.0000000000e+00 -1.0000000000e+00 0.0000000000e+00
   outer loop
     vertex 0.0000000000e+00 -5.0000000000e+00 0.0000000000e+00
     vertex 2.4681659684e-02 -5.0000000000e+00 1.0851119914e-02
     vertex 2.4681659684e-02 -5.0000000000e+00 2.1702239828e-02
   endloop
 endfacet
 facet normal  0.0000000000e+00 -1.0000000000e+00 0.0000000000e+00
   outer loop
     vertex 2.4681659684e-02 -5.0000000000e+00 2.1702239828e-02
     vertex 2.4681659684e-02 -5.0000000000e+00 1.0851119914e-02
     vertex 8.3233162389e-02 -5.0000000000e+00 1.8226416178e-02
   endloop
 endfacet
 facet normal  0.0000000000e+00 -1.0000000000e+00 0.0000000000e+00
   outer loop
     vertex 2.4681659684e-02 -5.0000000000e+00 2.1702239828e-02
     vertex 8.3233162389e-02 -5.0000000000e+00 1.8226416178e-02
     vertex 8.3233162389e-02 -5.0000000000e+00 3.6452832356e-02
   endloop
 endfacet
 facet normal  0.0000000000e+00 -1.0000000000e+00 0.0000000000e+00
   outer loop
     vertex 8.3233162389e-02 -5.0000000000e+00 3.6452832356e-02
     vertex 8.3233162389e-02 -5.0000000000e+00 1.8226416178e-02
     vertex 1.8077108286e-01 -5.0000000000e+00 2.3379146618e-02
   endloop
 endfacet
 facet normal  0.0000000000e+00 -1.0000000000e+00 0.0000000000e+00
   outer loop
     vertex 8.3233162389e-02 -5.0000000000e+00 3.6452832356e-02
     vertex 1.8077108286e-01 -5.0000000000e+00 2.3379146618e-02
     vertex 1.8077108286e-01 -5.0000000000e+00 4.6758293235e-02
   endloop
 endfacet
 facet normal  0.0000000000e+00 -1.0000000000e+00 0.0000000000e+00
   outer loop
     vertex 1.8077108286e-01 -5.0000000000e+00 4.6758293235e-02
     vertex 1.8077108286e-01 -5.0000000000e+00 2.3379146618e-02
     vertex 3.2214805739e-01 -5.0000000000e+00 2.4961019322e-02
   endloop
 endfacet
 facet normal  0.0000000000e+00 -1.0000000000e+00 0.0000000000e+00
   outer loop
     vertex 1.8077108286e-01 -5.0000000000e+00 4.6758293235e-02
     vertex 3.2214805739e-01 -5.0000000000e+00 2.4961019322e-02
     vertex 3.2214805739e-01 -5.0000000000e+00 4.9922038645e-02
   endloop
 endfacet
 facet normal  0.0000000000e+00 -1.0000000000e+00 0.0000000000e+00
   outer loop
     vertex 3.2214805739e-01 -5.0000000000e+00 4.9922038645e-02
     vertex 3.2214805739e-01 -5.0000000000e+00 2.4961019322e-02
     vertex 4.9469990917e-01 -5.0000000000e+00 2.2144637336e-02
   endloop
 endfacet
 facet normal  0.0000000000e+00 -1.0000000000e+00 0.0000000000e+00
   outer loop
     vertex 3.2214805739e-01 -5.0000000000e+00 4.9922038645e-02
     vertex 4.9469990917e-01 -5.0000000000e+00 2.2144637336e-02
     vertex 4.9469990917e-01 -5.0000000000e+00 4.4289274671e-02
   endloop
 endfacet
 facet normal  0.0000000000e+00 -1.0000000000e+00 0.0000000000e+00
   outer loop
     vertex 4.9469990917e-01 -5.0000000000e+00 4.4289274671e-02
     vertex 4.9469990917e-01 -5.0000000000e+00 2.2144637336e-02
     vertex 6.6696530618e-01 -5.0000000000e+00 3.2730684740e-02
   endloop
 endfacet
 facet normal  0.0000000000e+00 -1.0000000000e+00 0.0000000000e+00
   outer loop
     vertex 4.9469990917e-01 -5.0000000000e+00 2.2144637336e-02
     vertex 6.6696530618e-01 -5.0000000000e+00 1.6365342370e-02
     vertex 6.6696530618e-01 -5.0000000000e+00 3.2730684740e-02
   endloop
 endfacet
 facet normal  0.0000000000e+00 -1.0000000000e+00 0.0000000000e+00
   outer loop
     vertex 6.6696530618e-01 -5.0000000000e+00 3.2730684740e-02
     vertex 6.6696530618e-01 -5.0000000000e+00 1.6365342370e-02
     vertex 8.0786174469e-01 -5.0000000000e+00 2.0368618951e-02
   endloop
 endfacet
 facet normal  0.0000000000e+00 -1.0000000000e+00 0.0000000000e+00
   outer loop
     vertex 6.6696530618e-01 -5.0000000000e+00 1.6365342370e-02
     vertex 8.0786174469e-01 -5.0000000000e+00 1.0184309475e-02
     vertex 8.0786174469e-01 -5.0000000000e+00 2.0368618951e-02
   endloop
 endfacet
 facet normal  0.0000000000e+00 -1.0000000000e+00 0.0000000000e+00
   outer loop
     vertex 8.0786174469e-01 -5.0000000000e+00 2.0368618951e-02
     vertex 8.0786174469e-01 -5.0000000000e+00 1.0184309475e-02
     vertex 9.0549005286e-01 -5.0000000000e+00 1.0527788770e-02
   endloop
 endfacet
 facet normal  0.0000000000e+00 -1.0000000000e+00 0.0000000000e+00
   outer loop
     vertex 8.0786174469e-01 -5.0000000000e+00 1.0184309475e-02
     vertex 9.0549005286e-01 -5.0000000000e+00 5.2638943848e-03
     vertex 9.0549005286e-01 -5.0000000000e+00 1.0527788770e-02
   endloop
 endfacet
 facet normal  0.0000000000e+00 -1.0000000000e+00 0.0000000000e+00
   outer loop
     vertex 9.0549005286e-01 -5.0000000000e+00 1.0527788770e-02
     vertex 9.0549005286e-01 -5.0000000000e+00 5.2638943848e-03
     vertex 9.6561709246e-01 -5.0000000000e+00 3.9496290522e-03
   endloop
 endfacet
 facet normal  0.0000000000e+00 -1.0000000000e+00 0.0000000000e+00
   outer loop
     vertex 9.0549005286e-01 -5.0000000000e+00 5.2638943848e-03
     vertex 9.6561709246e-01 -5.0000000000e+00 1.9748145261e-03
     vertex 9.6561709246e-01 -5.0000000000e+00 3.9496290522e-03
   endloop
 endfacet
 facet normal  0.0000000000e+00 -1.0000000000e+00 0.0000000000e+00
   outer loop
     vertex 9.6561709246e-01 -5.0000000000e+00 3.9496290522e-03
     vertex 9.6561709246e-01 -5.0000000000e+00 1.9748145261e-03
     vertex 1.0000000000e+00 -5.0000000000e+00 0.0000000000e+00
   endloop
 endfacet
 facet normal  0.0000000000e+00 -1.0000000000e+00 -0.0000000000e+00
   outer loop
     vertex 1.0000000000e+00 -5.0000000000e+00 0.0000000000e+00
     vertex 9.6561709246e-01 -5.0000000000e+00 -1.9788834051e-16
     vertex 9.6561709246e-01 -5.0000000000e+00 -1.9748145261e-03
   endloop
 endfacet
 facet normal  -0.0000000000e+00 -1.0000000000e+00 0.0000000000e+00
   outer loop
     vertex 9.6561709246e-01 -5.0000000000e+00 -1.9748145261e-03
     vertex 9.6561709246e-01 -5.0000000000e+00 -1.9788834051e-16
     vertex 9.0549005286e-01 -5.0000000000e+00 -3.6023677021e-17
   endloop
 endfacet
 facet normal  0.0000000000e+00 -1.0000000000e+00 0.0000000000e+00
   outer loop
     vertex 9.6561709246e-01 -5.0000000000e+00 -1.9748145261e-03
     vertex 9.0549005286e-01 -5.0000000000e+00 -3.6023677021e-17
     vertex 9.0549005286e-01 -5.0000000000e+00 -5.2638943848e-03
   endloop
 endfacet
 facet normal  -0.0000000000e+00 -1.0000000000e+00 -0.0000000000e+00
   outer loop
     vertex 9.0549005286e-01 -5.0000000000e+00 -5.2638943848e-03
     vertex 9.0549005286e-01 -5.0000000000e+00 -3.6023677021e-17
     vertex 8.0786174469e-01 -5.0000000000e+00 3.0029559672e-17
   endloop
 endfacet
 facet normal  0.0000000000e+00 -1.0000000000e+00 0.0000000000e+00
   outer loop
     vertex 9.0549005286e-01 -5.0000000000e+00 -5.2638943848e-03
     vertex 8.0786174469e-01 -5.0000000000e+00 3.0029559672e-17
     vertex 8.0786174469e-01 -5.0000000000e+00 -1.0184309475e-02
   endloop
 endfacet
 facet normal  0.0000000000e+00 -1.0000000000e+00 -0.0000000000e+00
   outer loop
     vertex 8.0786174469e-01 -5.0000000000e+00 -1.0184309475e-02
     vertex 8.0786174469e-01 -5.0000000000e+00 3.0029559672e-17
     vertex 6.6696530618e-01 -5.0000000000e+00 5.6580167423e-18
   endloop
 endfacet
 facet normal  0.0000000000e+00 -1.0000000000e+00 0.0000000000e+00
   outer loop
     vertex 8.0786174469e-01 -5.0000000000e+00 -1.0184309475e-02
     vertex 6.6696530618e-01 -5.0000000000e+00 5.6580167423e-18
     vertex 6.6696530618e-01 -5.0000000000e+00 -1.6365342370e-02
   endloop
 endfacet
 facet normal  -0.0000000000e+00 -1.0000000000e+00 -0.0000000000e+00
   outer loop
     vertex 6.6696530618e-01 -5.0000000000e+00 -1.6365342370e-02
     vertex 6.6696530618e-01 -5.0000000000e+00 5.6580167423e-18
     vertex 4.9469990917e-01 -5.0000000000e+00 6.9388939039e-18
   endloop
 endfacet
 facet normal  0.0000000000e+00 -1.0000000000e+00 0.0000000000e+00
   outer loop
     vertex 6.6696530618e-01 -5.0000000000e+00 -1.6365342370e-02
     vertex 4.9469990917e-01 -5.0000000000e+00 6.9388939039e-18
     vertex 4.9469990917e-01 -5.0000000000e+00 -2.2144637336e-02
   endloop
 endfacet
 facet normal  0.0000000000e+00 -1.0000000000e+00 -0.0000000000e+00
   outer loop
     vertex 4.9469990917e-01 -5.0000000000e+00 -2.2144637336e-02
     vertex 4.9469990917e-01 -5.0000000000e+00 6.9388939039e-18
     vertex 3.2214805739e-01 -5.0000000000e+00 -2.4961019322e-02
   endloop
 endfacet
 facet normal  0.0000000000e+00 -1.0000000000e+00 0.0000000000e+00
   outer loop
     vertex 4.9469990917e-01 -5.0000000000e+00 6.9388939039e-18
     vertex 3.2214805739e-01 -5.0000000000e+00 -6.7040199171e-18
     vertex 3.2214805739e-01 -5.0000000000e+00 -2.4961019322e-02
   endloop
 endfacet
 facet normal  0.0000000000e+00 -1.0000000000e+00 -0.0000000000e+00
   outer loop
     vertex 3.2214805739e-01 -5.0000000000e+00 -2.4961019322e-02
     vertex 3.2214805739e-01 -5.0000000000e+00 -6.7040199171e-18
     vertex 1.8077108286e-01 -5.0000000000e+00 -2.3379146618e-02
   endloop
 endfacet
 facet normal  0.0000000000e+00 -1.0000000000e+00 0.0000000000e+00
   outer loop
     vertex 3.2214805739e-01 -5.0000000000e+00 -6.7040199171e-18
     vertex 1.8077108286e-01 -5.0000000000e+00 -2.1830886704e-18
     vertex 1.8077108286e-01 -5.0000000000e+00 -2.3379146618e-02
   endloop
 endfacet
 facet normal  0.0000000000e+00 -1.0000000000e+00 -0.0000000000e+00
   outer loop
     vertex 1.8077108286e-01 -5.0000000000e+00 -2.3379146618e-02
     vertex 1.8077108286e-01 -5.0000000000e+00 -2.1830886704e-18
     vertex 8.3233162389e-02 -5.0000000000e+00 -1.8226416178e-02
   endloop
 endfacet
 facet normal  0.0000000000e+00 -1.0000000000e+00 0.0000000000e+00
   outer loop
     vertex 1.8077108286e-01 -5.0000000000e+00 -2.1830886704e-18
     vertex 8.3233162389e-02 -5.0000000000e+00 -2.0746925703e-17
     vertex 8.3233162389e-02 -5.0000000000e+00 -1.8226416178e-02
   endloop
 endfacet
 facet normal  0.0000000000e+00 -1.0000000000e+00 -0.0000000000e+00
   outer loop
     vertex 8.3233162389e-02 -5.0000000000e+00 -1.8226416178e-02
     vertex 8.3233162389e-02 -5.0000000000e+00 -2.0746925703e-17
     vertex 2.4681659684e-02 -5.0000000000e+00 -1.0851119914e-02
   endloop
 endfacet
 facet normal  0.0000000000e+00 -1.0000000000e+00 -0.0000000000e+00
   outer loop
     vertex 8.3233162389e-02 -5.0000000000e+00 -2.0746925703e-17
     vertex 2.4681659684e-02 -5.0000000000e+00 1.5092488814e-17
     vertex 2.4681659684e-02 -5.0000000000e+00 -1.0851119914e-02
   endloop
 endfacet
 facet normal  0.0000000000e+00 -1.0000000000e+00 0.0000000000e+00
   outer loop
     vertex 2.4681659684e-02 -5.0000000000e+00 -1.0851119914e-02
     vertex 2.4681659684e-02 -5.0000000000e+00 1.5092488814e-17
     vertex 0.0000000000e+00 -5.0000000000e+00 0.0000000000e+00
   endloop
 endfacet
 facet normal  -0.0000000000e+00 -1.0000000000e+00 0.0000000000e+00
   outer loop
     vertex 0.0000000000e+00 -5.0000000000e+00 0.0000000000e+00
     vertex 2.4681659684e-02 -5.0000000000e+00 1.5092488814e-17
     vertex 2.4681659684e-02 -5.0000000000e+00 1.0851119914e-02
   endloop
 endfacet
 facet normal  0.0000000000e+00 -1.0000000000e+00 0.0000000000e+00
   outer loop
     vertex 2.4681659684e-02 -5.0000000000e+00 1.0851119914e-02
     vertex 2.4681659684e-02 -5.0000000000e+00 1.5092488814e-17
     vertex 8.3233162389e-02 -5.0000000000e+00 -2.0746925703e-17
   endloop
 endfacet
 facet normal  0.0000000000e+00 -1.0000000000e+00 0.0000000000e+00
   outer loop
     vertex 2.4681659684e-02 -5.0000000000e+00 1.0851119914e-02
     vertex 8.3233162389e-02 -5.0000000000e+00 -2.0746925703e-17
     vertex 8.3233162389e-02 -5.0000000000e+00 1.8226416178e-02
   endloop
 endfacet
 facet normal  0.0000000000e+00 -1.0000000000e+00 0.0000000000e+00
   outer loop
     vertex 8.3233162389e-02 -5.0000000000e+00 1.8226416178e-02
     vertex 8.3233162389e-02 -5.0000000000e+00 -2.0746925703e-17
     vertex 1.8077108286e-01 -5.0000000000e+00 -2.1830886704e-18
   endloop
 endfacet
 facet normal  0.0000000000e+00 -1.0000000000e+00 0.0000000000e+00
   outer loop
     vertex 8.3233162389e-02 -5.0000000000e+00 1.8226416178e-02
     vertex 1.8077108286e-01 -5.0000000000e+00 -2.1830886704e-18
     vertex 1.8077108286e-01 -5.0000000000e+00 2.3379146618e-02
   endloop
 endfacet
 facet normal  0.0000000000e+00 -1.0000000000e+00 0.0000000000e+00
   outer loop
     vertex 1.8077108286e-01 -5.0000000000e+00 2.3379146618e-02
     vertex 1.8077108286e-01 -5.0000000000e+00 -2.1830886704e-18
     vertex 3.2214805739e-01 -5.0000000000e+00 -6.7040199171e-18
   endloop
 endfacet
 facet normal  0.0000000000e+00 -1.0000000000e+00 0.0000000000e+00
   outer loop
     vertex 1.8077108286e-01 -5.0000000000e+00 2.3379146618e-02
     vertex 3.2214805739e-01 -5.0000000000e+00 -6.7040199171e-18
     vertex 3.2214805739e-01 -5.0000000000e+00 2.4961019322e-02
   endloop
 endfacet
 facet normal  0.0000000000e+00 -1.0000000000e+00 0.0000000000e+00
   outer loop
     vertex 3.2214805739e-01 -5.0000000000e+00 2.4961019322e-02
     vertex 3.2214805739e-01 -5.0000000000e+00 -6.7040199171e-18
     vertex 4.9469990917e-01 -5.0000000000e+00 6.9388939039e-18
   endloop
 endfacet
 facet normal  0.0000000000e+00 -1.0000000000e+00 0.0000000000e+00
   outer loop
     vertex 3.2214805739e-01 -5.0000000000e+00 2.4961019322e-02
     vertex 4.9469990917e-01 -5.0000000000e+00 6.9388939039e-18
     vertex 4.9469990917e-01 -5.0000000000e+00 2.2144637336e-02
   endloop
 endfacet
 facet normal  0.0000000000e+00 -1.0000000000e+00 0.0000000000e+00
   outer loop
     vertex 4.9469990917e-01 -5.0000000000e+00 2.2144637336e-02
     vertex 4.9469990917e-01 -5.0000000000e+00 6.9388939039e-18
     vertex 6.6696530618e-01 -5.0000000000e+00 1.6365342370e-02
   endloop
 endfacet
 facet normal  0.0000000000e+00 -1.0000000000e+00 0.0000000000e+00
   outer loop
     vertex 4.9469990917e-01 -5.0000000000e+00 6.9388939039e-18
     vertex 6.6696530618e-01 -5.0000000000e+00 5.6580167423e-18
     vertex 6.6696530618e-01 -5.0000000000e+00 1.6365342370e-02
   endloop
 endfacet
 facet normal  0.0000000000e+00 -1.0000000000e+00 0.0000000000e+00
   outer loop
     vertex 6.6696530618e-01 -5.0000000000e+00 1.6365342370e-02
     vertex 6.6696530618e-01 -5.0000000000e+00 5.6580167423e-18
     vertex 8.0786174469e-01 -5.0000000000e+00 1.0184309475e-02
   endloop
 endfacet
 facet normal  -0.0000000000e+00 -1.0000000000e+00 0.0000000000e+00
   outer loop
     vertex 6.6696530618e-01 -5.0000000000e+00 5.6580167423e-18
     vertex 8.0786174469e-01 -5.0000000000e+00 3.0029559672e-17
     vertex 8.0786174469e-01 -5.0000000000e+00 1.0184309475e-02
   endloop
 endfacet
 facet normal  0.0000000000e+00 -1.0000000000e+00 0.0000000000e+00
   outer loop
     vertex 8.0786174469e-01 -5.0000000000e+00 1.0184309475e-02
     vertex 8.0786174469e-01 -5.0000000000e+00 3.0029559672e-17
     vertex 9.0549005286e-01 -5.0000000000e+00 5.2638943848e-03
   endloop
 endfacet
 facet normal  0.0000000000e+00 -1.0000000000e+00 0.0000000000e+00
   outer loop
     vertex 8.0786174469e-01 -5.0000000000e+00 3.0029559672e-17
     vertex 9.0549005286e-01 -5.0000000000e+00 -3.6023677021e-17
     vertex 9.0549005286e-01 -5.0000000000e+00 5.2638943848e-03
   endloop
 endfacet
 facet normal  0.0000000000e+00 -1.0000000000e+00 0.0000000000e+00
   outer loop
     vertex 9.0549005286e-01 -5.0000000000e+00 5.2638943848e-03
     vertex 9.0549005286e-01 -5.0000000000e+00 -3.6023677021e-17
     vertex 9.6561709246e-01 -5.0000000000e+00 1.9748145261e-03
   endloop
 endfacet
 facet normal  0.0000000000e+00 -1.0000000000e+00 0.0000000000e+00
   outer loop
     vertex 9.0549005286e-01 -5.0000000000e+00 -3.6023677021e-17
     vertex 9.6561709246e-01 -5.0000000000e+00 -1.9788834051e-16
     vertex 9.6561709246e-01 -5.0000000000e+00 1.9748145261e-03
   endloop
 endfacet
 facet normal  0.0000000000e+00 -1.0000000000e+00 0.0000000000e+00
   outer loop
     vertex 9.6561709246e-01 -5.0000000000e+00 1.9748145261e-03
     vertex 9.6561709246e-01 -5.0000000000e+00 -1.9788834051e-16
     vertex 1.0000000000e+00 -5.0000000000e+00 0.0000000000e+00
   endloop
 endfacet
endsolid
